<?xml version="1.0" encoding="utf-8"?>
<!-- Generator: Adobe Illustrator 22.1.0, SVG Export Plug-In . SVG Version: 6.00 Build 0)  -->
<svg version="1.1" id="Layer_1" xmlns="http://www.w3.org/2000/svg" xmlns:xlink="http://www.w3.org/1999/xlink" x="0px" y="0px"
	 viewBox="0 0 648 450" style="enable-background:new 0 0 648 450;" xml:space="preserve">
<style type="text/css">
	.st0{fill:#BDECFB;}
	.st1{fill:#009999;}
	.st2{opacity:0.32;}
	.st3{opacity:0;fill:#FFFFFF;}
	.st4{opacity:9.901000e-03;fill:#FCFCFC;}
	.st5{opacity:1.980200e-02;fill:#FAFAFA;}
	.st6{opacity:2.970300e-02;fill:#F7F7F7;}
	.st7{opacity:3.960400e-02;fill:#F5F5F5;}
	.st8{opacity:4.950500e-02;fill:#F2F2F2;}
	.st9{opacity:5.940600e-02;fill:#F0F0F0;}
	.st10{opacity:6.930700e-02;fill:#EDEDED;}
	.st11{opacity:7.920800e-02;fill:#EBEBEB;}
	.st12{opacity:8.910900e-02;fill:#E8E8E8;}
	.st13{opacity:9.901000e-02;fill:#E6E6E6;}
	.st14{opacity:0.1089;fill:#E3E3E3;}
	.st15{opacity:0.1188;fill:#E1E1E1;}
	.st16{opacity:0.1287;fill:#DEDEDE;}
	.st17{opacity:0.1386;fill:#DCDCDC;}
	.st18{opacity:0.1485;fill:#D9D9D9;}
	.st19{opacity:0.1584;fill:#D7D7D7;}
	.st20{opacity:0.1683;fill:#D4D4D4;}
	.st21{opacity:0.1782;fill:#D2D2D2;}
	.st22{opacity:0.1881;fill:#CFCFCF;}
	.st23{opacity:0.198;fill:#CDCDCD;}
	.st24{opacity:0.2079;fill:#CACACA;}
	.st25{opacity:0.2178;fill:#C7C7C7;}
	.st26{opacity:0.2277;fill:#C5C5C5;}
	.st27{opacity:0.2376;fill:#C2C2C2;}
	.st28{opacity:0.2475;fill:#C0C0C0;}
	.st29{opacity:0.2574;fill:#BDBDBD;}
	.st30{opacity:0.2673;fill:#BBBBBB;}
	.st31{opacity:0.2772;fill:#B8B8B8;}
	.st32{opacity:0.2871;fill:#B6B6B6;}
	.st33{opacity:0.297;fill:#B3B3B3;}
	.st34{opacity:0.3069;fill:#B1B1B1;}
	.st35{opacity:0.3168;fill:#AEAEAE;}
	.st36{opacity:0.3267;fill:#ACACAC;}
	.st37{opacity:0.3366;fill:#A9A9A9;}
	.st38{opacity:0.3465;fill:#A7A7A7;}
	.st39{opacity:0.3564;fill:#A4A4A4;}
	.st40{opacity:0.3663;fill:#A2A2A2;}
	.st41{opacity:0.3762;fill:#9F9F9F;}
	.st42{opacity:0.3861;fill:#9D9D9D;}
	.st43{opacity:0.396;fill:#9A9A9A;}
	.st44{opacity:0.4059;fill:#979797;}
	.st45{opacity:0.4158;fill:#959595;}
	.st46{opacity:0.4257;fill:#929292;}
	.st47{opacity:0.4356;fill:#909090;}
	.st48{opacity:0.4455;fill:#8D8D8D;}
	.st49{opacity:0.4554;fill:#8B8B8B;}
	.st50{opacity:0.4653;fill:#888888;}
	.st51{opacity:0.4752;fill:#868686;}
	.st52{opacity:0.4851;fill:#838383;}
	.st53{opacity:0.4951;fill:#818181;}
	.st54{opacity:0.5049;fill:#7E7E7E;}
	.st55{opacity:0.5149;fill:#7C7C7C;}
	.st56{opacity:0.5248;fill:#797979;}
	.st57{opacity:0.5347;fill:#777777;}
	.st58{opacity:0.5446;fill:#747474;}
	.st59{opacity:0.5545;fill:#727272;}
	.st60{opacity:0.5644;fill:#6F6F6F;}
	.st61{opacity:0.5743;fill:#6D6D6D;}
	.st62{opacity:0.5842;fill:#6A6A6A;}
	.st63{opacity:0.5941;fill:#686868;}
	.st64{opacity:0.604;fill:#656565;}
	.st65{opacity:0.6139;fill:#626262;}
	.st66{opacity:0.6238;fill:#606060;}
	.st67{opacity:0.6337;fill:#5D5D5D;}
	.st68{opacity:0.6436;fill:#5B5B5B;}
	.st69{opacity:0.6535;fill:#585858;}
	.st70{opacity:0.6634;fill:#565656;}
	.st71{opacity:0.6733;fill:#535353;}
	.st72{opacity:0.6832;fill:#515151;}
	.st73{opacity:0.6931;fill:#4E4E4E;}
	.st74{opacity:0.703;fill:#4C4C4C;}
	.st75{opacity:0.7129;fill:#494949;}
	.st76{opacity:0.7228;fill:#474747;}
	.st77{opacity:0.7327;fill:#444444;}
	.st78{opacity:0.7426;fill:#424242;}
	.st79{opacity:0.7525;fill:#3F3F3F;}
	.st80{opacity:0.7624;fill:#3D3D3D;}
	.st81{opacity:0.7723;fill:#3A3A3A;}
	.st82{opacity:0.7822;fill:#383838;}
	.st83{opacity:0.7921;fill:#353535;}
	.st84{opacity:0.802;fill:#323232;}
	.st85{opacity:0.8119;fill:#303030;}
	.st86{opacity:0.8218;fill:#2D2D2D;}
	.st87{opacity:0.8317;fill:#2B2B2B;}
	.st88{opacity:0.8416;fill:#282828;}
	.st89{opacity:0.8515;fill:#262626;}
	.st90{opacity:0.8614;fill:#232323;}
	.st91{opacity:0.8713;fill:#212121;}
	.st92{opacity:0.8812;fill:#1E1E1E;}
	.st93{opacity:0.8911;fill:#1C1C1C;}
	.st94{opacity:0.901;fill:#191919;}
	.st95{opacity:0.9109;fill:#171717;}
	.st96{opacity:0.9208;fill:#141414;}
	.st97{opacity:0.9307;fill:#121212;}
	.st98{opacity:0.9406;fill:#0F0F0F;}
	.st99{opacity:0.9505;fill:#0D0D0D;}
	.st100{opacity:0.9604;fill:#0A0A0A;}
	.st101{opacity:0.9703;fill:#080808;}
	.st102{opacity:0.9802;fill:#050505;}
	.st103{opacity:0.9901;fill:#030303;}
	.st104{fill:#FFFFFF;}
	.st105{fill:#262C66;}
	.st106{fill:#E7E7E7;}
	.st107{fill:#FD425F;}
	.st108{fill:#77D2C9;}
	.st109{fill:#1B0C41;}
	.st110{fill:url(#SVGID_1_);}
	.st111{fill:#D3E9FF;}
	.st112{fill:#F88667;}
	.st113{opacity:0.32;fill:#CA0045;}
	.st114{fill:#110239;}
	.st115{fill:#E45940;}
	.st116{fill:#0400A3;}
	.st117{fill:#04006C;}
	.st118{fill:#01D9CF;}
	.st119{fill:#8494AB;}
	.st120{fill:#B3B2DA;}
	.st121{fill:#060D24;}
	.st122{fill:url(#SVGID_2_);}
	.st123{fill:#DBDBDB;}
	.st124{fill:url(#SVGID_3_);}
	.st125{fill:url(#SVGID_4_);}
	.st126{fill:url(#SVGID_5_);}
	.st127{fill:#161415;}
	.st128{fill:#696C95;}
	.st129{fill:url(#SVGID_6_);}
	.st130{fill:url(#SVGID_7_);}
	.st131{opacity:0.55;}
	.st132{opacity:0.55;fill:#005B98;}
	.st133{fill:#FEE08D;}
	.st134{opacity:0.32;fill:#330045;}
	.st135{fill:#6CD3FE;}
	.st136{opacity:0.65;fill:#00A1CC;}
	.st137{fill:#141C1E;}
	.st138{fill:#616161;}
	.st139{fill:#272C66;}
	.st140{fill:#FFF9FD;}
</style>
<rect class="st0" width="648" height="450"/>
<path class="st1" d="M648,29.9c-25.7-6.7-54-8-69.3-6.6C560.5,25,542.2,31,528.1,36c-15.5,5.5-31.1,17.5-40.2,27.5
	c-19.6,21.4-22.9,46.3-39.4,70c-35.7,51.4-78.4,97.4-124.5,139.6c-23.3,21.3-47.3,41.7-71.8,61.6c-11.2,9.1-22.7,17.7-33.9,26.8
	c-9.6,7.8-27.1-10.4-30.4,1.9c-3.4,12.6-1.1,38.5,14.8,70.4c3,5.9,6.2,11.3,9.9,16.4H648V29.9z"/>
<path class="st1" d="M213.5,0h-76H2.1H0v2.9v43.5c0.1,1.2,0.1,2.4,0.2,3.6c0,1.4-0.1,2.7-0.2,4.1v30.1v68.3c0,0,45.4,5.3,54.3,3.2
	c13.6-3.3,41.9-23.6,53.1-31.1c4.7-3.1,9.5-5.6,14.7-7.8c9.2-3.9,19.3-6.8,27.5-12.8c9.2-6.8,11.8-17.7,12.8-28.4
	c1.1-11.7,6.9-14.6,11.4-25.4C187.5,16.7,213.5,0,213.5,0z"/>
<g class="st2">
	<path class="st3" d="M625.7,429H22.3c-2.3,0-4.3-2-4.3-4.5v-399c0-2.5,1.9-4.5,4.3-4.5h603.5c2.3,0,4.3,2,4.3,4.5v399
		C630,427,628.1,429,625.7,429z"/>
	<path class="st4" d="M625.4,428.7H22.6c-2.3,0-4.2-2-4.2-4.5V25.8c0-2.5,1.9-4.5,4.2-4.5h602.9c2.3,0,4.2,2,4.2,4.5v398.4
		C629.7,426.7,627.8,428.7,625.4,428.7z"/>
	<path class="st5" d="M625.1,428.4H22.9c-2.3,0-4.2-2-4.2-4.5V26.1c0-2.5,1.9-4.5,4.2-4.5h602.3c2.3,0,4.2,2,4.2,4.5v397.8
		C629.4,426.4,627.5,428.4,625.1,428.4z"/>
	<path class="st6" d="M624.8,428.1H23.2c-2.3,0-4.2-2-4.2-4.5V26.4c0-2.5,1.9-4.5,4.2-4.5h601.6c2.3,0,4.2,2,4.2,4.5v397.2
		C629.1,426.1,627.2,428.1,624.8,428.1z"/>
	<path class="st7" d="M624.5,427.7h-601c-2.3,0-4.2-2-4.2-4.5V26.7c0-2.5,1.9-4.5,4.2-4.5h601c2.3,0,4.2,2,4.2,4.5v396.6
		C628.8,425.8,626.9,427.7,624.5,427.7z"/>
	<path class="st8" d="M624.2,427.4H23.8c-2.3,0-4.2-2-4.2-4.4V27c0-2.5,1.9-4.4,4.2-4.4h600.4c2.3,0,4.2,2,4.2,4.4v396
		C628.4,425.4,626.5,427.4,624.2,427.4z"/>
	<path class="st9" d="M623.9,427.1H24.1c-2.3,0-4.2-2-4.2-4.4V27.3c0-2.5,1.9-4.4,4.2-4.4h599.8c2.3,0,4.2,2,4.2,4.4v395.4
		C628.1,425.1,626.2,427.1,623.9,427.1z"/>
	<path class="st10" d="M623.6,426.8H24.4c-2.3,0-4.2-2-4.2-4.4V27.6c0-2.4,1.9-4.4,4.2-4.4h599.2c2.3,0,4.2,2,4.2,4.4v394.8
		C627.8,424.8,625.9,426.8,623.6,426.8z"/>
	<path class="st11" d="M623.3,426.5H24.7c-2.3,0-4.2-2-4.2-4.4V27.9c0-2.4,1.9-4.4,4.2-4.4h598.6c2.3,0,4.2,2,4.2,4.4v394.1
		C627.5,424.5,625.6,426.5,623.3,426.5z"/>
	<path class="st12" d="M623,426.2H25c-2.3,0-4.2-2-4.2-4.4V28.2c0-2.4,1.9-4.4,4.2-4.4h598c2.3,0,4.2,2,4.2,4.4v393.5
		C627.2,424.2,625.3,426.2,623,426.2z"/>
	<path class="st13" d="M622.7,425.9H25.3c-2.3,0-4.2-2-4.2-4.4V28.5c0-2.4,1.9-4.4,4.2-4.4h597.3c2.3,0,4.2,2,4.2,4.4v392.9
		C626.9,423.9,625,425.9,622.7,425.9z"/>
	<path class="st14" d="M622.4,425.6H25.6c-2.3,0-4.2-2-4.2-4.4V28.8c0-2.4,1.9-4.4,4.2-4.4h596.7c2.3,0,4.2,2,4.2,4.4v392.3
		C626.6,423.6,624.7,425.6,622.4,425.6z"/>
	<path class="st15" d="M622.1,425.2H25.9c-2.3,0-4.2-2-4.2-4.4V29.1c0-2.4,1.9-4.4,4.2-4.4h596.1c2.3,0,4.2,2,4.2,4.4v391.7
		C626.3,423.3,624.4,425.2,622.1,425.2z"/>
	<path class="st16" d="M621.7,424.9H26.3c-2.3,0-4.2-2-4.2-4.4V29.5c0-2.4,1.9-4.4,4.2-4.4h595.5c2.3,0,4.2,2,4.2,4.4v391.1
		C625.9,423,624.1,424.9,621.7,424.9z"/>
	<path class="st17" d="M621.4,424.6H26.6c-2.3,0-4.2-2-4.2-4.4V29.8c0-2.4,1.9-4.4,4.2-4.4h594.9c2.3,0,4.2,2,4.2,4.4v390.5
		C625.6,422.7,623.8,424.6,621.4,424.6z"/>
	<path class="st18" d="M621.1,424.3H26.9c-2.3,0-4.2-2-4.2-4.4V30.1c0-2.4,1.9-4.4,4.2-4.4h594.3c2.3,0,4.2,2,4.2,4.4v389.9
		C625.3,422.4,623.4,424.3,621.1,424.3z"/>
	<path class="st19" d="M620.8,424H27.2c-2.3,0-4.2-2-4.2-4.4V30.4c0-2.4,1.9-4.4,4.2-4.4h593.7c2.3,0,4.2,2,4.2,4.4v389.3
		C625,422,623.1,424,620.8,424z"/>
	<path class="st20" d="M620.5,423.7h-593c-2.3,0-4.2-2-4.2-4.4V30.7c0-2.4,1.9-4.4,4.2-4.4h593c2.3,0,4.2,2,4.2,4.4v388.6
		C624.7,421.7,622.8,423.7,620.5,423.7z"/>
	<path class="st21" d="M620.2,423.4H27.8c-2.3,0-4.2-2-4.2-4.4V31c0-2.4,1.9-4.4,4.2-4.4h592.4c2.3,0,4.2,2,4.2,4.4v388
		C624.4,421.4,622.5,423.4,620.2,423.4z"/>
	<path class="st22" d="M619.9,423.1H28.1c-2.3,0-4.2-1.9-4.2-4.4V31.3c0-2.4,1.9-4.4,4.2-4.4h591.8c2.3,0,4.2,1.9,4.2,4.4v387.4
		C624.1,421.1,622.2,423.1,619.9,423.1z"/>
	<path class="st23" d="M619.6,422.7H28.4c-2.3,0-4.2-1.9-4.2-4.3V31.6c0-2.4,1.9-4.3,4.2-4.3h591.2c2.3,0,4.2,1.9,4.2,4.3v386.8
		C623.8,420.8,621.9,422.7,619.6,422.7z"/>
	<path class="st24" d="M619.3,422.4H28.7c-2.3,0-4.2-1.9-4.2-4.3V31.9c0-2.4,1.9-4.3,4.2-4.3h590.6c2.3,0,4.2,1.9,4.2,4.3v386.2
		C623.5,420.5,621.6,422.4,619.3,422.4z"/>
	<path class="st25" d="M619,422.1H29c-2.3,0-4.2-1.9-4.2-4.3V32.2c0-2.4,1.9-4.3,4.2-4.3h590c2.3,0,4.2,1.9,4.2,4.3v385.6
		C623.1,420.2,621.3,422.1,619,422.1z"/>
	<path class="st26" d="M618.7,421.8H29.3c-2.3,0-4.2-1.9-4.2-4.3v-385c0-2.4,1.9-4.3,4.2-4.3h589.4c2.3,0,4.2,1.9,4.2,4.3v385
		C622.8,419.9,621,421.8,618.7,421.8z"/>
	<path class="st27" d="M618.4,421.5H29.6c-2.3,0-4.1-1.9-4.1-4.3V32.8c0-2.4,1.9-4.3,4.1-4.3h588.7c2.3,0,4.1,1.9,4.1,4.3v384.4
		C622.5,419.6,620.7,421.5,618.4,421.5z"/>
	<path class="st28" d="M618.1,421.2H29.9c-2.3,0-4.1-1.9-4.1-4.3V33.1c0-2.4,1.9-4.3,4.1-4.3h588.1c2.3,0,4.1,1.9,4.1,4.3v383.8
		C622.2,419.3,620.4,421.2,618.1,421.2z"/>
	<path class="st29" d="M617.8,420.9H30.2c-2.3,0-4.1-1.9-4.1-4.3V33.4c0-2.4,1.9-4.3,4.1-4.3h587.5c2.3,0,4.1,1.9,4.1,4.3v383.1
		C621.9,418.9,620,420.9,617.8,420.9z"/>
	<path class="st30" d="M617.4,420.6H30.6c-2.3,0-4.1-1.9-4.1-4.3V33.7c0-2.4,1.9-4.3,4.1-4.3h586.9c2.3,0,4.1,1.9,4.1,4.3v382.5
		C621.6,418.6,619.7,420.6,617.4,420.6z"/>
	<path class="st31" d="M617.1,420.2H30.9c-2.3,0-4.1-1.9-4.1-4.3V34c0-2.4,1.9-4.3,4.1-4.3h586.3c2.3,0,4.1,1.9,4.1,4.3V416
		C621.3,418.3,619.4,420.2,617.1,420.2z"/>
	<path class="st32" d="M616.8,419.9H31.2c-2.3,0-4.1-1.9-4.1-4.3V34.3c0-2.4,1.8-4.3,4.1-4.3h585.7c2.3,0,4.1,1.9,4.1,4.3v381.3
		C621,418,619.1,419.9,616.8,419.9z"/>
	<path class="st33" d="M616.5,419.6h-585c-2.3,0-4.1-1.9-4.1-4.3V34.7c0-2.4,1.8-4.3,4.1-4.3h585c2.3,0,4.1,1.9,4.1,4.3v380.7
		C620.6,417.7,618.8,419.6,616.5,419.6z"/>
	<path class="st34" d="M616.2,419.3H31.8c-2.3,0-4.1-1.9-4.1-4.3V35c0-2.4,1.8-4.3,4.1-4.3h584.4c2.3,0,4.1,1.9,4.1,4.3V415
		C620.3,417.4,618.5,419.3,616.2,419.3z"/>
	<path class="st35" d="M615.9,419H32.1c-2.3,0-4.1-1.9-4.1-4.3V35.3c0-2.4,1.8-4.3,4.1-4.3h583.8c2.3,0,4.1,1.9,4.1,4.3v379.5
		C620,417.1,618.2,419,615.9,419z"/>
	<path class="st36" d="M615.6,418.7H32.4c-2.3,0-4.1-1.9-4.1-4.3V35.6c0-2.3,1.8-4.3,4.1-4.3h583.2c2.3,0,4.1,1.9,4.1,4.3v378.9
		C619.7,416.8,617.9,418.7,615.6,418.7z"/>
	<path class="st37" d="M615.3,418.4H32.7c-2.3,0-4.1-1.9-4.1-4.2V35.9c0-2.3,1.8-4.2,4.1-4.2h582.6c2.3,0,4.1,1.9,4.1,4.2v378.3
		C619.4,416.5,617.6,418.4,615.3,418.4z"/>
	<path class="st38" d="M615,418.1H33c-2.3,0-4.1-1.9-4.1-4.2V36.2c0-2.3,1.8-4.2,4.1-4.2h582c2.3,0,4.1,1.9,4.1,4.2v377.6
		C619.1,416.2,617.3,418.1,615,418.1z"/>
	<path class="st39" d="M614.7,417.7H33.3c-2.3,0-4.1-1.9-4.1-4.2v-377c0-2.3,1.8-4.2,4.1-4.2h581.4c2.3,0,4.1,1.9,4.1,4.2v377
		C618.8,415.9,616.9,417.7,614.7,417.7z"/>
	<path class="st40" d="M614.4,417.4H33.6c-2.3,0-4.1-1.9-4.1-4.2V36.8c0-2.3,1.8-4.2,4.1-4.2h580.7c2.3,0,4.1,1.9,4.1,4.2v376.4
		C618.5,415.5,616.6,417.4,614.4,417.4z"/>
	<path class="st41" d="M614.1,417.1H33.9c-2.3,0-4.1-1.9-4.1-4.2V37.1c0-2.3,1.8-4.2,4.1-4.2h580.1c2.3,0,4.1,1.9,4.1,4.2v375.8
		C618.2,415.2,616.3,417.1,614.1,417.1z"/>
	<path class="st42" d="M613.8,416.8H34.2c-2.3,0-4.1-1.9-4.1-4.2V37.4c0-2.3,1.8-4.2,4.1-4.2h579.5c2.3,0,4.1,1.9,4.1,4.2v375.2
		C617.8,414.9,616,416.8,613.8,416.8z"/>
	<path class="st43" d="M613.5,416.5H34.5c-2.3,0-4.1-1.9-4.1-4.2V37.7c0-2.3,1.8-4.2,4.1-4.2h578.9c2.3,0,4.1,1.9,4.1,4.2v374.6
		C617.5,414.6,615.7,416.5,613.5,416.5z"/>
	<path class="st44" d="M613.1,416.2H34.9c-2.3,0-4.1-1.9-4.1-4.2V38c0-2.3,1.8-4.2,4.1-4.2h578.3c2.3,0,4.1,1.9,4.1,4.2v374
		C617.2,414.3,615.4,416.2,613.1,416.2z"/>
	<path class="st45" d="M612.8,415.9H35.2c-2.2,0-4.1-1.9-4.1-4.2V38.3c0-2.3,1.8-4.2,4.1-4.2h577.7c2.2,0,4.1,1.9,4.1,4.2v373.4
		C616.9,414,615.1,415.9,612.8,415.9z"/>
	<path class="st46" d="M612.5,415.6H35.5c-2.2,0-4.1-1.9-4.1-4.2V38.6c0-2.3,1.8-4.2,4.1-4.2h577.1c2.2,0,4.1,1.9,4.1,4.2v372.7
		C616.6,413.7,614.8,415.6,612.5,415.6z"/>
	<path class="st47" d="M612.2,415.2H35.8c-2.2,0-4.1-1.9-4.1-4.2V38.9c0-2.3,1.8-4.2,4.1-4.2h576.4c2.2,0,4.1,1.9,4.1,4.2v372.1
		C616.3,413.4,614.5,415.2,612.2,415.2z"/>
	<path class="st48" d="M611.9,414.9H36.1c-2.2,0-4.1-1.9-4.1-4.2V39.2c0-2.3,1.8-4.2,4.1-4.2h575.8c2.2,0,4.1,1.9,4.1,4.2v371.5
		C616,413.1,614.2,414.9,611.9,414.9z"/>
	<path class="st49" d="M611.6,414.6H36.4c-2.2,0-4.1-1.9-4.1-4.2V39.5c0-2.3,1.8-4.2,4.1-4.2h575.2c2.2,0,4.1,1.9,4.1,4.2v370.9
		C615.7,412.8,613.8,414.6,611.6,414.6z"/>
	<path class="st50" d="M611.3,414.3H36.7c-2.2,0-4.1-1.9-4.1-4.2V39.8c0-2.3,1.8-4.2,4.1-4.2h574.6c2.2,0,4.1,1.9,4.1,4.2v370.3
		C615.3,412.4,613.5,414.3,611.3,414.3z"/>
	<path class="st51" d="M611,414H37c-2.2,0-4-1.9-4-4.2V40.2c0-2.3,1.8-4.2,4-4.2h574c2.2,0,4,1.9,4,4.2v369.7
		C615,412.1,613.2,414,611,414z"/>
	<path class="st52" d="M610.7,413.7H37.3c-2.2,0-4-1.9-4-4.1V40.5c0-2.3,1.8-4.1,4-4.1h573.4c2.2,0,4,1.9,4,4.1v369.1
		C614.7,411.8,612.9,413.7,610.7,413.7z"/>
	<path class="st53" d="M610.4,413.4H37.6c-2.2,0-4-1.9-4-4.1V40.8c0-2.3,1.8-4.1,4-4.1h572.8c2.2,0,4,1.9,4,4.1v368.5
		C614.4,411.5,612.6,413.4,610.4,413.4z"/>
	<path class="st54" d="M610.1,413.1H37.9c-2.2,0-4-1.8-4-4.1V41.1c0-2.3,1.8-4.1,4-4.1h572.1c2.2,0,4,1.8,4,4.1v367.9
		C614.1,411.2,612.3,413.1,610.1,413.1z"/>
	<path class="st55" d="M609.8,412.7H38.2c-2.2,0-4-1.8-4-4.1V41.4c0-2.3,1.8-4.1,4-4.1h571.5c2.2,0,4,1.8,4,4.1v367.2
		C613.8,410.9,612,412.7,609.8,412.7z"/>
	<path class="st56" d="M609.5,412.4H38.5c-2.2,0-4-1.8-4-4.1V41.7c0-2.3,1.8-4.1,4-4.1h570.9c2.2,0,4,1.8,4,4.1v366.6
		C613.5,410.6,611.7,412.4,609.5,412.4z"/>
	<path class="st57" d="M609.1,412.1H38.9c-2.2,0-4-1.8-4-4.1V42c0-2.3,1.8-4.1,4-4.1h570.3c2.2,0,4,1.8,4,4.1v366
		C613.2,410.3,611.4,412.1,609.1,412.1z"/>
	<path class="st58" d="M608.8,411.8H39.2c-2.2,0-4-1.8-4-4.1V42.3c0-2.3,1.8-4.1,4-4.1h569.7c2.2,0,4,1.8,4,4.1v365.4
		C612.9,410,611.1,411.8,608.8,411.8z"/>
	<path class="st59" d="M608.5,411.5H39.5c-2.2,0-4-1.8-4-4.1V42.6c0-2.3,1.8-4.1,4-4.1h569.1c2.2,0,4,1.8,4,4.1v364.8
		C612.5,409.7,610.7,411.5,608.5,411.5z"/>
	<path class="st60" d="M608.2,411.2H39.8c-2.2,0-4-1.8-4-4.1V42.9c0-2.3,1.8-4.1,4-4.1h568.4c2.2,0,4,1.8,4,4.1v364.2
		C612.2,409.4,610.4,411.2,608.2,411.2z"/>
	<path class="st61" d="M607.9,410.9H40.1c-2.2,0-4-1.8-4-4.1V43.2c0-2.3,1.8-4.1,4-4.1h567.8c2.2,0,4,1.8,4,4.1v363.6
		C611.9,409,610.1,410.9,607.9,410.9z"/>
	<path class="st62" d="M607.6,410.6H40.4c-2.2,0-4-1.8-4-4.1v-363c0-2.3,1.8-4.1,4-4.1h567.2c2.2,0,4,1.8,4,4.1v363
		C611.6,408.7,609.8,410.6,607.6,410.6z"/>
	<path class="st63" d="M607.3,410.2H40.7c-2.2,0-4-1.8-4-4.1V43.8c0-2.2,1.8-4.1,4-4.1h566.6c2.2,0,4,1.8,4,4.1v362.4
		C611.3,408.4,609.5,410.2,607.3,410.2z"/>
	<path class="st64" d="M607,409.9H41c-2.2,0-4-1.8-4-4.1V44.1c0-2.2,1.8-4.1,4-4.1h566c2.2,0,4,1.8,4,4.1v361.7
		C611,408.1,609.2,409.9,607,409.9z"/>
	<path class="st65" d="M606.7,409.6H41.3c-2.2,0-4-1.8-4-4.1V44.4c0-2.2,1.8-4.1,4-4.1h565.4c2.2,0,4,1.8,4,4.1v361.1
		C610.7,407.8,608.9,409.6,606.7,409.6z"/>
	<path class="st66" d="M606.4,409.3H41.6c-2.2,0-4-1.8-4-4V44.7c0-2.2,1.8-4,4-4h564.8c2.2,0,4,1.8,4,4v360.5
		C610.4,407.5,608.6,409.3,606.4,409.3z"/>
	<path class="st67" d="M606.1,409H41.9c-2.2,0-4-1.8-4-4V45c0-2.2,1.8-4,4-4h564.1c2.2,0,4,1.8,4,4V405
		C610,407.2,608.3,409,606.1,409z"/>
	<path class="st68" d="M605.8,408.7H42.2c-2.2,0-4-1.8-4-4V45.4c0-2.2,1.8-4,4-4h563.5c2.2,0,4,1.8,4,4v359.3
		C609.7,406.9,608,408.7,605.8,408.7z"/>
	<path class="st69" d="M605.5,408.4H42.5c-2.2,0-4-1.8-4-4V45.7c0-2.2,1.8-4,4-4h562.9c2.2,0,4,1.8,4,4v358.7
		C609.4,406.6,607.6,408.4,605.5,408.4z"/>
	<path class="st70" d="M605.2,408.1H42.8c-2.2,0-4-1.8-4-4V46c0-2.2,1.8-4,4-4h562.3c2.2,0,4,1.8,4,4V404
		C609.1,406.3,607.3,408.1,605.2,408.1z"/>
	<path class="st71" d="M604.8,407.7H43.2c-2.2,0-4-1.8-4-4V46.3c0-2.2,1.8-4,4-4h561.7c2.2,0,4,1.8,4,4v357.5
		C608.8,405.9,607,407.7,604.8,407.7z"/>
	<path class="st72" d="M604.5,407.4H43.5c-2.2,0-4-1.8-4-4V46.6c0-2.2,1.8-4,4-4h561.1c2.2,0,4,1.8,4,4v356.9
		C608.5,405.6,606.7,407.4,604.5,407.4z"/>
	<path class="st73" d="M604.2,407.1H43.8c-2.2,0-4-1.8-4-4V46.9c0-2.2,1.8-4,4-4h560.5c2.2,0,4,1.8,4,4v356.2
		C608.2,405.3,606.4,407.1,604.2,407.1z"/>
	<path class="st74" d="M603.9,406.8H44.1c-2.2,0-3.9-1.8-3.9-4V47.2c0-2.2,1.8-4,3.9-4h559.8c2.2,0,3.9,1.8,3.9,4v355.6
		C607.9,405,606.1,406.8,603.9,406.8z"/>
	<path class="st75" d="M603.6,406.5H44.4c-2.2,0-3.9-1.8-3.9-4v-355c0-2.2,1.8-4,3.9-4h559.2c2.2,0,3.9,1.8,3.9,4v355
		C607.6,404.7,605.8,406.5,603.6,406.5z"/>
	<path class="st76" d="M603.3,406.2H44.7c-2.2,0-3.9-1.8-3.9-4V47.8c0-2.2,1.8-4,3.9-4h558.6c2.2,0,3.9,1.8,3.9,4v354.4
		C607.2,404.4,605.5,406.2,603.3,406.2z"/>
	<path class="st77" d="M603,405.9H45c-2.2,0-3.9-1.8-3.9-4V48.1c0-2.2,1.8-4,3.9-4h558c2.2,0,3.9,1.8,3.9,4v353.8
		C606.9,404.1,605.2,405.9,603,405.9z"/>
	<path class="st78" d="M602.7,405.6H45.3c-2.2,0-3.9-1.8-3.9-4V48.4c0-2.2,1.8-4,3.9-4h557.4c2.2,0,3.9,1.8,3.9,4v353.2
		C606.6,403.8,604.9,405.6,602.7,405.6z"/>
	<path class="st79" d="M602.4,405.2H45.6c-2.2,0-3.9-1.8-3.9-4V48.7c0-2.2,1.8-4,3.9-4h556.8c2.2,0,3.9,1.8,3.9,4v352.6
		C606.3,403.5,604.6,405.2,602.4,405.2z"/>
	<path class="st80" d="M602.1,404.9H45.9c-2.2,0-3.9-1.8-3.9-4V49c0-2.2,1.8-4,3.9-4h556.2c2.2,0,3.9,1.8,3.9,4v352
		C606,403.2,604.2,404.9,602.1,404.9z"/>
	<path class="st81" d="M601.8,404.6H46.2c-2.2,0-3.9-1.8-3.9-3.9V49.3c0-2.2,1.8-3.9,3.9-3.9h555.5c2.2,0,3.9,1.8,3.9,3.9v351.3
		C605.7,402.9,603.9,404.6,601.8,404.6z"/>
	<path class="st82" d="M601.5,404.3H46.5c-2.2,0-3.9-1.8-3.9-3.9V49.6c0-2.2,1.8-3.9,3.9-3.9h554.9c2.2,0,3.9,1.8,3.9,3.9v350.7
		C605.4,402.5,603.6,404.3,601.5,404.3z"/>
	<path class="st83" d="M601.2,404H46.8c-2.2,0-3.9-1.8-3.9-3.9V49.9c0-2.2,1.7-3.9,3.9-3.9h554.3c2.2,0,3.9,1.8,3.9,3.9v350.1
		C605.1,402.2,603.3,404,601.2,404z"/>
	<path class="st84" d="M600.8,403.7H47.2c-2.2,0-3.9-1.8-3.9-3.9V50.2c0-2.2,1.7-3.9,3.9-3.9h553.7c2.2,0,3.9,1.8,3.9,3.9v349.5
		C604.7,401.9,603,403.7,600.8,403.7z"/>
	<path class="st85" d="M600.5,403.4H47.5c-2.2,0-3.9-1.8-3.9-3.9V50.5c0-2.2,1.7-3.9,3.9-3.9h553.1c2.2,0,3.9,1.8,3.9,3.9v348.9
		C604.4,401.6,602.7,403.4,600.5,403.4z"/>
	<path class="st86" d="M600.2,403.1H47.8c-2.2,0-3.9-1.8-3.9-3.9V50.9c0-2.2,1.7-3.9,3.9-3.9h552.5c2.2,0,3.9,1.8,3.9,3.9v348.3
		C604.1,401.3,602.4,403.1,600.2,403.1z"/>
	<path class="st87" d="M599.9,402.7H48.1c-2.1,0-3.9-1.7-3.9-3.9V51.2c0-2.2,1.7-3.9,3.9-3.9h551.8c2.1,0,3.9,1.7,3.9,3.9v347.7
		C603.8,401,602.1,402.7,599.9,402.7z"/>
	<path class="st88" d="M599.6,402.4H48.4c-2.1,0-3.9-1.7-3.9-3.9V51.5c0-2.2,1.7-3.9,3.9-3.9h551.2c2.1,0,3.9,1.7,3.9,3.9v347.1
		C603.5,400.7,601.8,402.4,599.6,402.4z"/>
	<path class="st89" d="M599.3,402.1H48.7c-2.1,0-3.9-1.7-3.9-3.9V51.8c0-2.1,1.7-3.9,3.9-3.9h550.6c2.1,0,3.9,1.7,3.9,3.9v346.5
		C603.2,400.4,601.5,402.1,599.3,402.1z"/>
	<path class="st90" d="M599,401.8H49c-2.1,0-3.9-1.7-3.9-3.9V52.1c0-2.1,1.7-3.9,3.9-3.9h550c2.1,0,3.9,1.7,3.9,3.9v345.8
		C602.9,400.1,601.1,401.8,599,401.8z"/>
	<path class="st91" d="M598.7,401.5H49.3c-2.1,0-3.9-1.7-3.9-3.9V52.4c0-2.1,1.7-3.9,3.9-3.9h549.4c2.1,0,3.9,1.7,3.9,3.9v345.2
		C602.6,399.8,600.8,401.5,598.7,401.5z"/>
	<path class="st92" d="M598.4,401.2H49.6c-2.1,0-3.9-1.7-3.9-3.9V52.7c0-2.1,1.7-3.9,3.9-3.9h548.8c2.1,0,3.9,1.7,3.9,3.9v344.6
		C602.3,399.4,600.5,401.2,598.4,401.2z"/>
	<path class="st93" d="M598.1,400.9H49.9c-2.1,0-3.9-1.7-3.9-3.9V53c0-2.1,1.7-3.9,3.9-3.9h548.2c2.1,0,3.9,1.7,3.9,3.9v344
		C601.9,399.1,600.2,400.9,598.1,400.9z"/>
	<path class="st94" d="M597.8,400.6H50.2c-2.1,0-3.9-1.7-3.9-3.9V53.3c0-2.1,1.7-3.9,3.9-3.9h547.5c2.1,0,3.9,1.7,3.9,3.9v343.4
		C601.6,398.8,599.9,400.6,597.8,400.6z"/>
	<path class="st95" d="M597.5,400.2H50.5c-2.1,0-3.9-1.7-3.9-3.8V53.6c0-2.1,1.7-3.8,3.9-3.8h546.9c2.1,0,3.9,1.7,3.9,3.8v342.8
		C601.3,398.5,599.6,400.2,597.5,400.2z"/>
	<path class="st96" d="M597.2,399.9H50.8c-2.1,0-3.9-1.7-3.9-3.8V53.9c0-2.1,1.7-3.8,3.9-3.8h546.3c2.1,0,3.9,1.7,3.9,3.8v342.2
		C601,398.2,599.3,399.9,597.2,399.9z"/>
	<path class="st97" d="M596.9,399.6H51.1c-2.1,0-3.8-1.7-3.8-3.8V54.2c0-2.1,1.7-3.8,3.8-3.8h545.7c2.1,0,3.8,1.7,3.8,3.8v341.6
		C600.7,397.9,599,399.6,596.9,399.6z"/>
	<path class="st98" d="M596.5,399.3H51.5c-2.1,0-3.8-1.7-3.8-3.8v-341c0-2.1,1.7-3.8,3.8-3.8h545.1c2.1,0,3.8,1.7,3.8,3.8v341
		C600.4,397.6,598.7,399.3,596.5,399.3z"/>
	<path class="st99" d="M596.2,399H51.8c-2.1,0-3.8-1.7-3.8-3.8V54.8c0-2.1,1.7-3.8,3.8-3.8h544.5c2.1,0,3.8,1.7,3.8,3.8v340.3
		C600.1,397.3,598.4,399,596.2,399z"/>
	<path class="st100" d="M595.9,398.7H52.1c-2.1,0-3.8-1.7-3.8-3.8V55.1c0-2.1,1.7-3.8,3.8-3.8h543.9c2.1,0,3.8,1.7,3.8,3.8v339.7
		C599.8,397,598,398.7,595.9,398.7z"/>
	<path class="st101" d="M595.6,398.4H52.4c-2.1,0-3.8-1.7-3.8-3.8V55.4c0-2.1,1.7-3.8,3.8-3.8h543.2c2.1,0,3.8,1.7,3.8,3.8v339.1
		C599.4,396.7,597.7,398.4,595.6,398.4z"/>
	<path class="st102" d="M595.3,398.1H52.7c-2.1,0-3.8-1.7-3.8-3.8V55.7c0-2.1,1.7-3.8,3.8-3.8h542.6c2.1,0,3.8,1.7,3.8,3.8v338.5
		C599.1,396.4,597.4,398.1,595.3,398.1z"/>
	<path class="st103" d="M595,397.7H53c-2.1,0-3.8-1.7-3.8-3.8V56.1c0-2.1,1.7-3.8,3.8-3.8h542c2.1,0,3.8,1.7,3.8,3.8v337.9
		C598.8,396,597.1,397.7,595,397.7z"/>
	<path d="M594.7,397.4H53.3c-2.1,0-3.8-1.7-3.8-3.8V56.4c0-2.1,1.7-3.8,3.8-3.8h541.4c2.1,0,3.8,1.7,3.8,3.8v337.3
		C598.5,395.7,596.8,397.4,594.7,397.4z"/>
</g>
<path class="st104" d="M596.7,400H51.3c-2.1,0-3.8-1.7-3.8-3.8V53.8c0-2.1,1.7-3.8,3.8-3.8h545.3c2.1,0,3.8,1.7,3.8,3.8v342.3
	C600.5,398.3,598.8,400,596.7,400z"/>
<path class="st0" d="M601.6,397.4V53.8c0-2.1-1.7-3.8-3.8-3.8h-94.4c-13.8,8.3-30.2,34.8-34.6,49.4c-7.6,24.9-24.2,42.2-32.6,46.9
	c-22.1,12.1-46.9,9.2-70.8,14.8c-25.9,6.1-50,21.8-61.4,44.9c-11,22.4-7.8,41.2-14.2,64.3c-6.5,23.4-29.8,41.6-52,50.1
	c-23.5,9-46.2,15.7-50.5,41.1c-2.2,13.1-1,26.6,2.7,39.6h407.8C599.9,401.2,601.6,399.5,601.6,397.4z"/>
<g>
	
		<rect x="445.4" y="237.4" transform="matrix(2.175935e-03 -1 1 2.175935e-03 299.9059 810.3167)" class="st104" width="221.3" height="35"/>
	
		<rect x="445.4" y="252.9" transform="matrix(2.175935e-03 -1 1 2.175935e-03 299.9062 810.317)" class="st105" width="221.3" height="4.1"/>
	
		<rect x="435.2" y="252.8" transform="matrix(2.176319e-03 -1 1 2.176319e-03 289.7968 800.1411)" class="st105" width="221.3" height="4.1"/>
	
		<rect x="456.1" y="252.9" transform="matrix(2.176383e-03 -1 1 2.176383e-03 310.6365 821.1174)" class="st105" width="221.3" height="4.1"/>
	<polygon class="st106" points="573.7,144.3 538.8,144.2 555.8,111 	"/>
	<polygon class="st107" points="546.6,129 565.5,129 555.8,111 	"/>
</g>
<path class="st1" d="M47.5,53.8c0,0,0,69.3,0,102.1c17,0.2,39.7-5.1,45.8-7.6c26.4-11,55.6-24.3,78.9-95.5c0.4-1.2,0.6-1.9,1.5-2.7
	H52C49.5,50,47.5,51.7,47.5,53.8z"/>
<ellipse class="st108" cx="304.2" cy="369.9" rx="55.5" ry="5"/>
<g>
	<g>
		<g>
			<g>
				<path class="st109" d="M467.5,239.3v-58.7c0-0.9,0.7-1.5,1.5-1.5h34.1c0.9,0,1.5,0.7,1.5,1.5v58.7c0,0.9-0.7,1.5-1.5,1.5H469
					C468.2,240.9,467.5,240.2,467.5,239.3z"/>
				<linearGradient id="SVGID_1_" gradientUnits="userSpaceOnUse" x1="486.2869" y1="183.0182" x2="486.2869" y2="235.5267">
					<stop  offset="0" style="stop-color:#59C7EF"/>
					<stop  offset="0.1967" style="stop-color:#62CAF0"/>
					<stop  offset="0.5159" style="stop-color:#7AD4F2"/>
					<stop  offset="0.9155" style="stop-color:#A1E3F6"/>
					<stop  offset="1" style="stop-color:#AAE7F7"/>
				</linearGradient>
				<rect x="470.3" y="181.7" class="st110" width="31.9" height="54.1"/>
				<path class="st104" d="M486.1,239.2c-0.6,0-1-0.4-1-1c0-0.6,0.4-1,1-1s1,0.4,1,1C487.1,238.7,486.6,239.2,486.1,239.2z"/>
			</g>
			<path class="st104" d="M472.8,184.8h-0.8c-0.2,0-0.4-0.2-0.4-0.4v-0.5c0-0.2,0.2-0.4,0.4-0.4h0.8c0.2,0,0.4,0.2,0.4,0.4v0.5
				C473.1,184.6,473,184.8,472.8,184.8z"/>
			<path class="st104" d="M477,184.8h-0.8c-0.2,0-0.4-0.2-0.4-0.4v-0.5c0-0.2,0.2-0.4,0.4-0.4h0.8c0.2,0,0.4,0.2,0.4,0.4v0.5
				C477.4,184.6,477.2,184.8,477,184.8z"/>
			<path class="st104" d="M497.6,184.8h-0.8c-0.2,0-0.4-0.2-0.4-0.4v-0.5c0-0.2,0.2-0.4,0.4-0.4h0.8c0.2,0,0.4,0.2,0.4,0.4v0.5
				C498,184.6,497.8,184.8,497.6,184.8z"/>
			<path class="st104" d="M492.9,184.8H492c-0.2,0-0.4-0.2-0.4-0.4v-0.5c0-0.2,0.2-0.4,0.4-0.4h0.8c0.2,0,0.4,0.2,0.4,0.4v0.5
				C493.2,184.6,493.1,184.8,492.9,184.8z"/>
			<path class="st104" d="M500.6,184.8h-0.8c-0.2,0-0.4-0.2-0.4-0.4v-0.5c0-0.2,0.2-0.4,0.4-0.4h0.8c0.2,0,0.4,0.2,0.4,0.4v0.5
				C501,184.6,500.8,184.8,500.6,184.8z"/>
		</g>
		<rect x="472.7" y="219.6" class="st104" width="26.8" height="6.3"/>
		<g>
			<g>
				<rect x="478.2" y="221.1" class="st111" width="19" height="1.2"/>
				<rect x="478.2" y="223.2" class="st111" width="15" height="1.2"/>
			</g>
			<path class="st111" d="M477.2,222.7c0,1-0.8,1.7-1.7,1.7c-1,0-1.7-0.8-1.7-1.7c0-1,0.8-1.7,1.7-1.7
				C476.4,221,477.2,221.8,477.2,222.7z"/>
		</g>
		<rect x="472.7" y="210.5" class="st104" width="26.8" height="6.3"/>
		<g>
			<g>
				<rect x="478.2" y="212" class="st111" width="19" height="1.2"/>
				<rect x="478.2" y="214.1" class="st111" width="15" height="1.2"/>
			</g>
			<circle class="st111" cx="475.5" cy="213.6" r="1.7"/>
		</g>
		<rect x="472.7" y="201.4" class="st104" width="26.8" height="6.3"/>
		<g>
			<g>
				<rect x="478.2" y="202.9" class="st111" width="19" height="1.2"/>
				<rect x="478.2" y="205" class="st111" width="15" height="1.2"/>
			</g>
			<circle class="st111" cx="475.5" cy="204.5" r="1.7"/>
		</g>
		<g>
			<path class="st104" d="M498,197.4h-24c-0.9,0-1.6-0.7-1.6-1.6v-3.3c0-0.9,0.7-1.6,1.6-1.6h24c0.9,0,1.6,0.7,1.6,1.6v3.3
				C499.7,196.6,498.9,197.4,498,197.4z M474.1,191.3c-0.6,0-1.2,0.5-1.2,1.2v3.3c0,0.6,0.5,1.2,1.2,1.2h24c0.6,0,1.2-0.5,1.2-1.2
				v-3.3c0-0.6-0.5-1.2-1.2-1.2H474.1z"/>
		</g>
		<polygon class="st104" points="476.4,192.3 476.8,193.7 478.3,193.7 477.1,194.5 477.6,195.9 476.4,195.1 475.2,195.9 
			475.6,194.5 474.4,193.7 475.9,193.7 		"/>
		<polygon class="st104" points="481.2,192.3 481.6,193.7 483.1,193.7 481.9,194.5 482.3,195.9 481.2,195.1 480,195.9 480.4,194.5 
			479.2,193.7 480.7,193.7 		"/>
		<polygon class="st104" points="486,192.3 486.4,193.7 487.9,193.7 486.7,194.5 487.1,195.9 486,195.1 484.8,195.9 485.2,194.5 
			484,193.7 485.5,193.7 		"/>
		<g>
			<path class="st104" d="M491.7,195.9l-1.2-0.9l-1.2,0.9l0.5-1.4l-1.2-0.9h1.5l0.5-1.4l0.5,1.4h1.5l-1.2,0.9L491.7,195.9z
				 M489.2,193.8l0.8,0.6l-0.3,1l0.8-0.6l0.8,0.6l-0.3-1l0.8-0.6h-1l-0.3-1l-0.3,1H489.2z"/>
		</g>
		<g>
			<path class="st104" d="M496.8,195.9l-1.2-0.9l-1.2,0.9l0.5-1.4l-1.2-0.9h1.5l0.5-1.4l0.5,1.4h1.5l-1.2,0.9L496.8,195.9z
				 M494.2,193.8l0.8,0.6l-0.3,1l0.8-0.6l0.8,0.6l-0.3-1l0.8-0.6h-1l-0.3-1l-0.3,1H494.2z"/>
		</g>
		<g>
			<path class="st107" d="M490.6,232.8h-9c-1.3,0-2.4-1.1-2.4-2.4v0c0-1.3,1.1-2.4,2.4-2.4h9c1.3,0,2.4,1.1,2.4,2.4v0
				C493,231.7,492,232.8,490.6,232.8z"/>
			<g>
				<path class="st104" d="M485.5,231.5c-0.1,0-0.2,0-0.3,0c-0.1,0-0.1-0.1-0.2-0.1c0-0.1-0.1-0.1-0.1-0.2c0-0.1,0-0.2,0-0.3v-0.8
					c0-0.1,0-0.2,0-0.3c0-0.1,0.1-0.1,0.1-0.2c0-0.1,0.1-0.1,0.2-0.1c0.1,0,0.2,0,0.3,0c0.2,0,0.4,0.1,0.5,0.2
					c0.1,0.1,0.1,0.3,0.1,0.5v0.8c0,0.2,0,0.4-0.1,0.5S485.7,231.5,485.5,231.5z M485.4,231.2C485.4,231.2,485.4,231.2,485.4,231.2
					c0.1,0,0.1,0,0.2,0c0,0,0,0,0.1,0c0,0,0,0,0-0.1c0,0,0,0,0-0.1c0,0,0-0.1,0-0.1v-1c0,0,0-0.1,0-0.1c0,0,0,0,0-0.1c0,0,0,0,0-0.1
					c0,0,0,0-0.1,0c0,0,0,0-0.1,0c0,0-0.1,0-0.1,0c0,0,0,0-0.1,0c0,0,0,0,0,0.1c0,0,0,0,0,0.1c0,0,0,0.1,0,0.1v1c0,0,0,0.1,0,0.1
					c0,0,0,0,0,0.1C485.3,231.1,485.3,231.2,485.4,231.2C485.4,231.2,485.4,231.2,485.4,231.2z"/>
				<path class="st104" d="M486.4,231.5v-2h0.4v0.9l0.4-0.9h0.4l-0.4,0.9l0.4,1.1h-0.4l-0.3-0.9l-0.1,0.1v0.8H486.4z"/>
			</g>
		</g>
	</g>
	<g>
		<path class="st112" d="M497.8,193.3c0,0-0.3,1.5-0.2,1.4c0,0-0.9-0.2-1-0.2c0,0-0.8,0.2-1.1,0.2c-0.3,0-0.6-0.1-0.7-0.2
			c-0.1,0-0.3-0.2-0.2-0.3c0.1-0.1,0.3,0.1,0.4,0.1c0.1,0,0.4-0.1,0.4-0.1s-0.1,0-0.4-0.1c-0.3-0.1-0.8-0.1-0.9-0.2
			c-0.1-0.1-0.1-0.2,0.1-0.2c0.3,0,0.5,0.1,0.6,0.1c0,0,0.5,0.1,0.5,0.1s-0.4-0.1-0.5-0.1c-0.2,0-0.6-0.1-0.9-0.2
			c-0.3-0.1-0.3-0.3,0-0.4c0.2,0,0.8,0.2,0.9,0.2c0.1,0,0.5,0.1,0.5,0.1s-0.5-0.1-0.6-0.1c-0.1,0-0.6-0.1-0.7-0.3
			c0-0.1,0-0.2,0.1-0.2c0.2,0,0.5,0,0.7,0.1c0.1,0,0.9,0.2,1.1,0.2c0.1,0,0.3-0.1,0.3-0.3l0.1-0.5c0,0,0.2,0,0.4,0.4
			C496.8,193,497.2,193.2,497.8,193.3z"/>
		<g>
			<path class="st107" d="M514,195.3c-0.2-1.1-1.3-1.8-2.5-1.8c-1.9,0.1-5.3,0.3-6.4,0.3c-1.5,0-7.7-0.7-7.7-0.7l-0.3,1.7
				c0,0,6.9,1.8,8.1,1.8c1.2,0,7.4,0.8,8.4-0.1C514,196.2,514.1,195.7,514,195.3z"/>
			<path class="st113" d="M514,195.3c-0.2-1.1-1.3-1.8-2.5-1.8c-1.9,0.1-5.3,0.3-6.4,0.3c-1.5,0-7.7-0.7-7.7-0.7l-0.3,1.7
				c0,0,6.9,1.8,8.1,1.8c1.2,0,7.4,0.8,8.4-0.1C514,196.2,514.1,195.7,514,195.3z"/>
		</g>
		<g>
			<polygon class="st114" points="518.3,211.4 517.9,210.3 501.3,210.3 501.6,211.4 			"/>
			<polygon class="st114" points="520.3,217.4 519.9,216.2 503.2,216.2 503.5,217.4 			"/>
			<polygon class="st114" points="515.8,205.5 515.4,204.4 498.8,204.4 499.1,205.5 			"/>
			<polygon class="st114" points="522.3,223.4 521.9,222.2 505.1,222.2 505.4,223.4 			"/>
			<polygon class="st114" points="524.3,229.4 523.9,228.3 507,228.3 507.4,229.4 			"/>
			<polygon class="st114" points="526.3,235.6 526,234.4 509,234.4 509.3,235.6 			"/>
			<polygon class="st114" points="528.4,241.7 528,240.6 510.9,240.6 511.3,241.7 			"/>
			<path class="st114" d="M530.3,250.7L530.3,250.7c0.6,0,1-0.5,0.8-1l-15.6-46.8c-0.1-0.3-0.4-0.5-0.7-0.5h-1.1l15.9,47.8
				C529.7,250.4,530,250.7,530.3,250.7z"/>
			<path class="st114" d="M513.4,250.7L513.4,250.7c0.6,0,1-0.5,0.8-1l-14.9-46.8c-0.1-0.3-0.4-0.5-0.7-0.5h0c-0.5,0-0.9,0.5-0.7,1
				l14.9,46.8C512.8,250.4,513.1,250.7,513.4,250.7z"/>
		</g>
		<g>
			<polygon class="st114" points="528.5,241.8 528.1,240.7 511,240.7 511.4,241.8 			"/>
			<polygon class="st114" points="530.5,247.9 530.1,246.7 513,246.7 513.3,247.9 			"/>
			<polygon class="st114" points="525.9,235.7 525.5,234.6 508.5,234.6 508.8,235.7 			"/>
			<polygon class="st114" points="532.5,254 532.1,252.9 514.9,252.9 515.3,254 			"/>
			<polygon class="st114" points="534.6,260.3 534.2,259.1 516.9,259.1 517.3,260.3 			"/>
			<polygon class="st114" points="536.7,266.5 536.3,265.3 518.9,265.3 519.3,266.5 			"/>
			<polygon class="st114" points="538.8,272.9 538.4,271.7 520.9,271.7 521.3,272.9 			"/>
			<path class="st114" d="M540.8,282L540.8,282c0.6,0,1-0.5,0.8-1l-16-48c-0.1-0.3-0.4-0.5-0.7-0.5h-1.1l16.3,49
				C540.1,281.8,540.4,282,540.8,282z"/>
			<path class="st114" d="M523.4,282L523.4,282c0.6,0,1-0.5,0.8-1l-15.3-48c-0.1-0.3-0.4-0.5-0.8-0.5h0c-0.5,0-0.9,0.5-0.8,1
				l15.2,48C522.8,281.8,523.1,282,523.4,282z"/>
		</g>
		<path class="st112" d="M513.4,188.7c0,0-0.1,0.1-0.1,0.1c-0.3,0.3-0.7,0.7-1.1,0.9c-0.2,0.2-0.6,0.3-0.8,0.4
			c-0.1,0.1-0.2,0.1-0.3,0.2c0.1,0.7,0.4,2.4,0.4,3.1c0,0,2.1-0.1,2.9-1C514.4,192.4,513.5,190,513.4,188.7z"/>
		<path class="st115" d="M512.2,192.2c0.1-0.6,0.5-1.2,1-1.6c0.2-0.1,0.3-0.3,0.5-0.4c-0.2-0.5-0.3-1.1-0.3-1.6c0,0-0.1,0.1-0.1,0.1
			c-0.3,0.3-0.7,0.7-1.1,0.9c-0.2,0.2-0.6,0.3-0.8,0.4c-0.1,0.1-0.2,0.1-0.3,0.2c0.1,0.7,0.4,2.4,0.4,3.1c0,0,0.4,0,0.8-0.1
			C512.2,192.9,512.1,192.6,512.2,192.2z"/>
		<path class="st114" d="M512.2,226.3c0,0-0.1,2.1-0.4,2.4c-0.3,0.3-4.5,0.4-4.9,0c-0.4-0.4-0.1-1,0.7-1.3c1-0.3,1.4,0,2-0.3
			c0.6-0.3,0.4-1.2,0.4-1.2L512.2,226.3z"/>
		<path class="st114" d="M522.6,226.2c0,0,0.3,2,0,2.3c-0.3,0.3-4.6,0.6-4.9,0.3c-0.4-0.4-0.2-1,0.7-1.3c1-0.3,1.4-0.1,2-0.3
			c0.5-0.2,0.2-1.2,0.2-1.2L522.6,226.2z"/>
		<g>
			<path class="st116" d="M519.5,214.4c0.1-5.8-0.6-9.8-0.9-11.7c-0.7,0-1.4,0.1-2.1,0.4c-1.3,0.6-2.6,1.1-3.8,1.7
				c1,2.2,3.3,9.2,3.6,10.7c0.3,1.8,4.2,11.2,4.2,11.2l2.3-0.3C522.7,224.9,519.5,214.9,519.5,214.4z"/>
			<path class="st117" d="M514.7,204c-0.7,0.3-1.4,0.6-2.1,0.8c1,2.1,2.9,8,3.3,9.5c0.3-1,1.9-3.3,2.5-5.9c0.4-1.7,0.5-3.5,0.2-5.3
				c0,0,0,0,0,0C517.3,203.2,516.1,203.3,514.7,204z"/>
			<path class="st116" d="M516.4,203.7c-0.9,0.3-2.5,0.7-3.8,1.2c-0.9,2.2-3.4,7.3-3.5,9.7c-0.1,2.6,0.7,12.3,0.7,12.3h2.6
				c0,0,0.2-11,0.6-11.7c1.2-2.3,2.6-4.2,3.3-5.6c1.3-2.4,1.7-4,2-5.1c0.1-0.5,0.5-2.2-0.3-2.7C517.4,201.9,517.2,203.4,516.4,203.7
				z"/>
		</g>
		<g>
			<path class="st107" d="M511.7,205.4c0,0,2.2,0.9,4.4,0.7c1.6-0.2,2.5-0.2,3.4-0.7c0,0-1-7.9-2.2-10.4c-1.2-2.5-3.1-3-3.1-3
				s-1.5,0.9-2.8,0.9c0,0,0,4.9,0.1,6.8C511.7,201.6,511.7,205.4,511.7,205.4z"/>
			<path class="st113" d="M511.6,199c0-0.2,0-0.4,0-0.7c0,0,0-0.1,0-0.1c0-0.2,0-0.5,0-0.7c0,0,0-0.1,0-0.1c0-0.3,0-0.5,0-0.8
				c0,0,0,0,0,0c0.1,0,0.2,0,0.3,0c0.8-0.2,1.4-0.6,2.1-1c0.1-0.1,0.2-0.1,0.3-0.2c0.1,1-0.3,2.3-0.5,3.1c-0.6,2.3-0.9,5.2-0.4,7.4
				c-1-0.2-1.7-0.5-1.7-0.5s0-3.8-0.1-5.7c0-0.2,0-0.4,0-0.6C511.6,199,511.6,199,511.6,199z"/>
		</g>
		<path class="st112" d="M513.8,185.8c0,0-1.4-1.5-2.5-1.1c-1.1,0.4-1.8,0.8-1.8,1.3c0,0.5,0.1,1.8-0.1,2.3
			c-0.2,0.5-0.6,1.3-0.5,1.5c0.1,0.2,0.8,0.1,0.8,0.1c0.1,0.1,0.9,1.5,1.1,1.5c0.3,0.1,2.2-1.4,2.4-2.2
			C513.4,188.6,514.3,187,513.8,185.8z"/>
		<path class="st114" d="M511.5,186.7c-0.1,0-0.2,0.2-0.3,0.2c-0.2,0.1-0.3,0.1-0.5,0.2c-0.3,0.2-0.7,0.3-1,0.3
			c-0.5,0-0.5-0.6-0.9-0.8c-0.2-0.1-0.4-0.1-0.6-0.2c-0.2-0.1-0.3-0.4-0.3-0.6c-0.1-0.5,0.3-0.7,0.7-0.9c0.4-0.3,0.4-0.5,0.5-0.9
			c0.3-1,1.4-0.1,2-0.3c0.3-0.1,0.6-0.4,0.9-0.4c0.3,0.1,0.5,0.3,0.8,0.5c0.3,0.2,0.4,0,0.7,0.1c0.2,0,0.5,0.1,0.7,0.3
			c0.4,0.3,0.8,0.8,0.8,1.3c0,0.4-0.2,0.7-0.1,1.2c0.1,0.3,0.2,0.8,0.2,1.1c-0.1,0.5-0.6,0.7-0.9,1.2c-0.3,0.4-0.7,0.7-1.2,0.8
			c-0.1-0.3-0.3-0.8,0-1.1c0.1-0.1,0.2-0.1,0.4-0.3c0.2-0.4-0.1-1-0.7-0.7c-0.3,0.2-0.2,1.2-0.7,1.2c-0.3,0-0.1-0.6-0.1-0.8
			c0-0.3-0.1-0.8-0.3-1C511.6,186.7,511.6,186.7,511.5,186.7z"/>
		<path class="st112" d="M502,205.4c-0.1,0-0.3,0-0.3,0c-0.2,0.1-0.5,0-0.7-0.1c-0.3-0.1-0.8-0.3-1.1-0.3c-0.2,0-1.3,0.3-1.1,0.8
			c0,0.1,0.2,0.2,0.2,0.1c0.1,0,0.4-0.2,0.4-0.2s-0.3,0.1-0.3,0.1c0,0-0.1,0.1-0.2,0.1c-0.1,0.1,0,0.3,0.1,0.3
			c0.1,0,0.2-0.1,0.3-0.1c0,0,0,0,0,0c-0.1,0.1-0.3,0.1-0.1,0.4c0.1,0.3,0.2,0.1,0.3,0.1c0,0,0.1,0,0.1,0c0,0-0.2,0.1-0.2,0.1
			c-0.1,0.1,0.1,0.4,0.3,0.4c0.1,0,0.4-0.2,0.5-0.2c0.1,0,0.2,0,0.3,0c0.3,0,0.5,0,0.8-0.2c0.1,0,0.3-0.1,0.4-0.2
			c0.3-0.1,0.6-0.4,0.6-0.4C502.2,205.9,501.9,205.8,502,205.4z"/>
		<path class="st107" d="M502.4,206.9l-0.9-1.8c0,0,4.6-3,6.3-4.7c1.7-1.7,3.5-5.2,4.8-5.4c1.3-0.2,2.6,0.5,1.8,2.3
			c-0.7,1.8-4.5,4.2-5.3,4.9C508.3,203,503.1,206.4,502.4,206.9z"/>
		<polygon class="st104" points="497.1,191 496.2,192.6 497.5,193.9 495.7,193.6 494.8,195.2 494.6,193.4 492.8,193 494.4,192.3 
			494.2,190.4 495.5,191.8 		"/>
	</g>
</g>
<g>
	<rect x="454.2" y="240.9" class="st106" width="64.7" height="71.6"/>
	<rect x="454.2" y="240.9" class="st107" width="64.7" height="5.6"/>
	<g>
		<rect x="459.8" y="251.5" class="st104" width="33.3" height="3.4"/>
		<rect x="459.8" y="258" class="st104" width="33.3" height="3.4"/>
		<rect x="459.8" y="272.3" class="st104" width="33.3" height="3.4"/>
		<rect x="459.8" y="278.7" class="st104" width="33.3" height="3.4"/>
		<rect x="498.8" y="249.6" class="st104" width="14.1" height="14.1"/>
		<path class="st118" d="M505.6,257.3c-0.2,0-2.2-4.8-2.7-4.7c-0.6,0.2-1.6,0.5-1.6,1.2c0,0.7,3.6,7.1,4.2,7.1
			c1.3,0,6.6-7.1,6.2-7.9c-0.4-0.8-1.8-1.4-2.1-1.1C509.2,252.3,505.7,257.3,505.6,257.3z"/>
		<rect x="498.8" y="269.9" class="st104" width="14.1" height="14.1"/>
		<path class="st118" d="M505.6,277.7c-0.2,0-2.2-4.8-2.7-4.7c-0.6,0.2-1.6,0.5-1.6,1.2c0,0.7,3.6,7.1,4.2,7.1
			c1.3,0,6.6-7.1,6.2-7.9c-0.4-0.8-1.8-1.4-2.1-1.1C509.2,272.6,505.7,277.7,505.6,277.7z"/>
		<rect x="459.8" y="293.2" class="st104" width="33.3" height="3.4"/>
		<rect x="459.8" y="299.7" class="st104" width="33.3" height="3.4"/>
		<rect x="498.8" y="290.9" class="st104" width="14.1" height="14.1"/>
		<path class="st118" d="M505.6,298.6c-0.2,0-2.2-4.8-2.7-4.7c-0.6,0.2-1.6,0.5-1.6,1.2c0,0.7,3.6,7.1,4.2,7.1
			c1.3,0,6.6-7.1,6.2-7.9c-0.4-0.8-1.8-1.4-2.1-1.1C509.2,293.5,505.7,298.6,505.6,298.6z"/>
	</g>
</g>
<g>
	<path class="st119" d="M369.2,283c-8.5-2.2-14.7-4.1-15.2-17.1c-0.3-6.2,1.3-10.7,5-15c3.1-3.5,4.7-4.9,5-9.9
		c0.5-7.7-2.5-13.5,0.1-20.9c2.7-7.9,11.1-8.4,13.9-15.7c2.4-6.4,3-13.1,10.1-16.5c6.3-3,11.2,2,9.8,8.2c-0.8,3.6-3.2,6.9-3.5,10.6
		c-0.3,3.6,1.8,5.8,3.9,8.4c5,6.2,8.3,14.2,1.6,22.3c-4,4.8-7,9-3.6,15.4c3.8,7.4,5.9,12-0.1,19.9c-4.5,5.9-9.5,6.3-15.4,7.5
		c-5.3,1.2-11.9,4.5-16.8,1.6L369.2,283z"/>
	<g>
		<path class="st104" d="M373.8,273.9c-0.3,0-0.5,0.1-0.8,0.1c-0.3,0-0.6-0.2-0.6-0.6c0-0.3,0.2-0.6,0.6-0.6c4-0.2,7.6-4.4,9.3-7.9
			c1.4-2.8,0.9-5.1,0.3-8l-0.5-2.4c-1.3-6.2-2.5-11.6,1.7-17.3c4.6-6.3,5.4-9.9,4-17.4c-0.1-0.6-0.3-1.3-0.4-1.9
			c-0.5-2.4-1.1-5.2-1-7.6c0.1-1.3,0.5-2.7,0.9-4c0.5-1.7,1-3.2,0.8-4.8c0-0.3,0.2-0.6,0.5-0.7c0,0,0,0,0,0c0.3,0,0.6,0.2,0.7,0.5
			c0.2,1.8-0.3,3.6-0.8,5.3c-0.4,1.3-0.8,2.5-0.8,3.7c-0.1,2.2,0.4,4.9,0.9,7.3c0.1,0.7,0.3,1.3,0.4,2c1.5,7.9,0.6,11.8-4.2,18.4
			c-3.8,5.2-2.8,10.1-1.5,16.3l0.5,2.4c0.7,3,1.2,5.6-0.4,8.8C381.5,269.1,378.1,273.2,373.8,273.9z"/>
	</g>
	<g>
		<path class="st104" d="M385,255.1c-0.7,0.1-1.7,0-2.7-0.9c-0.3-0.2-0.3-0.6-0.1-0.9c0.2-0.3,0.6-0.3,0.9-0.1
			c0.7,0.6,1.4,0.8,2.1,0.5c2.4-1,4.4-6.8,4.5-8.9c0.4-6.2,1.5-9.5,7-12.6c0.3-0.2,0.7-0.1,0.8,0.2c0.2,0.3,0.1,0.7-0.2,0.8
			c-5.3,3-6.1,6-6.4,11.6c-0.1,1.9-2,8.6-5.3,10C385.5,255,385.3,255,385,255.1z"/>
	</g>
	<g>
		<path class="st116" d="M348.3,290.1c-6.3,6.7-14,12.9-24.7,5.1c-5.4-3.9-5.7-9.5-6-16.2c-0.2-5.3,0-7.6-3.9-11.6
			c-6.1-6.1-16.6-5.2-20.7-13c-4.3-8.3,6.4-16.8,2.9-24.1c-3-6.3-8.3-12-3.8-17.5c3.7-4.4,11.9-2,15.2,3c1.9,2.8,2.5,6.1,4.9,8.9
			c2.4,2.7,5.4,3.3,8.6,4.2c7.2,2,13.9,5.6,15.1,13.5c0.8,4.9,1.7,9,7.3,11c6,2.1,9.3,3.5,11.1,11.2c1.4,6-0.4,9.5-2.3,14.4
			c-1.8,4.7-3,12.2-7.5,15.1L348.3,290.1z"/>
		<g>
			<path class="st104" d="M348.4,286.7c-1.4,0-2.6-0.2-3.9-0.8c-5.2-2.3-8.1-9.1-10.6-15.1c-1.2-2.9-2.4-5.7-3.6-7.5
				c-3.4-4.8-6.9-7.9-13-11.5c-7.1-4.2-8.9-7.5-10.5-14.4c-1.3-5.6-3-11.2-6.1-14.5c-0.2-0.3-0.2-0.6,0.1-0.8c0.3-0.2,0.7-0.2,1,0.1
				c3.3,3.5,5,9.2,6.4,15c1.6,6.7,3.2,9.6,9.9,13.6c5.2,3.1,9.4,6.3,13.4,11.9c1.3,1.9,2.5,4.7,3.8,7.7c2.4,5.7,5.2,12.3,9.8,14.3
				c1.8,0.8,3.8,0.8,6,0.1c0.4-0.1,0.8,0.1,0.9,0.4c0.2,0.3,0,0.7-0.4,0.8C350.5,286.5,349.4,286.7,348.4,286.7z"/>
		</g>
		<g>
			<path class="st104" d="M324.1,256.1c-0.2,0-0.3,0-0.4-0.1c-0.3-0.2-0.4-0.6-0.2-0.9c1.9-2.4,0.4-6-1.2-9.8
				c-1.4-3.3-2.8-6.7-2-9.5c0.1-0.3,0.5-0.5,0.8-0.4c0.4,0.1,0.6,0.4,0.5,0.7c-0.7,2.4,0.6,5.7,2,8.8c1.6,3.9,3.4,8.1,1.1,10.9
				C324.5,256.1,324.3,256.1,324.1,256.1z"/>
		</g>
		<g>
			<path class="st104" d="M331.7,264.3c-0.1,0-0.2,0-0.3,0c-1-0.3-1.8-0.7-2.6-1.1c-1.3-0.6-2.3-1.2-4-1.2c-0.9,0-1.8,0-2.6,0.1
				c-1.7,0.1-3.5,0.3-5.7-0.6c-3.1-1.3-6.5-3.7-9.9-7.1c-0.5-0.5-1.1-1.2-1.7-2c-0.9-1.1-2.7-3.3-3.3-3.4c-0.4-0.1-0.6-0.4-0.6-0.7
				c0.1-0.3,0.4-0.5,0.7-0.5c1.1,0.1,2.3,1.6,4.2,3.9c0.6,0.8,1.2,1.5,1.6,1.9c2.3,2.3,5.8,5.3,9.5,6.8c1.8,0.8,3.3,0.6,5,0.5
				c0.9-0.1,1.8-0.1,2.8-0.1c2.1,0.1,3.4,0.7,4.7,1.4c0.7,0.4,1.5,0.7,2.4,1c0.4,0.1,0.6,0.5,0.5,0.8
				C332.2,264.2,332,264.3,331.7,264.3z"/>
		</g>
	</g>
	<path class="st120" d="M349.9,287c-9.6-5.9-20.5-9.2-20.3-23.3c0.2-11.7,12.9-16.6,6.9-28.2c-3.8-7.4-11.9-15.4-10.9-24.5
		c1.1-9.7,13.8-7.8,15.1-16.9c1.1-7.7-7.9-15-1.9-22.1c5.3-6.2,16.8-2.8,21,2.8c5.3,7.1-0.7,14,1.6,21.4c1.5,4.8,6.3,4.8,10.1,7.1
		c3.7,2.2,8,6,10,9.8c6.3,11.9-5.7,18.4-8,28.7c-2.2,9.7,10.5,10.7,12.9,19.8c2.6,10-7.1,19.7-15.7,22.7
		C364.8,286.4,356,290.8,349.9,287z"/>
	<g>
		<path class="st104" d="M360.2,288.5c-0.1,0-0.1,0-0.2,0c-0.3,0-0.6-0.4-0.5-0.7c0-0.2,3.3-24.6-6.2-48.6c-6-15.2-4.4-26.7-3-36
			c0.8-5.5,1.5-10.3,0.1-14.2c-0.1-0.3,0.1-0.7,0.4-0.8c0.3-0.1,0.7,0.1,0.8,0.4c1.4,4.2,0.7,9.1-0.1,14.7c-1.3,9.1-3,20.4,3,35.3
			c9.7,24.3,6.3,49,6.3,49.3C360.7,288.3,360.5,288.5,360.2,288.5z"/>
	</g>
	<g>
		<path class="st104" d="M354.3,238.9c-0.3,0-0.6-0.1-0.7-0.4c-0.1-0.3,0.1-0.7,0.4-0.8c4.9-1.5,9.9-6.9,9.6-12.6
			c0-0.7-0.1-1.4-0.2-2.2c-0.3-3.7-0.7-8.3,1.6-10.9c1.1-1.3,2.8-1.9,5-2c0.3,0,0.6,0.3,0.6,0.6c0,0.3-0.2,0.6-0.6,0.6
			c-1.9,0-3.2,0.6-4.1,1.6c-2,2.2-1.6,6.5-1.3,10c0.1,0.8,0.1,1.5,0.2,2.2C365.2,231.4,359.7,237.2,354.3,238.9
			C354.4,238.8,354.3,238.9,354.3,238.9z"/>
	</g>
	<g>
		<path class="st104" d="M350.7,239.6c-2.4,0.3-4.5-0.1-6.3-1.2c-2.8-1.8-4.5-5.3-5.2-10.2c-0.1-0.5-0.1-1.1-0.2-1.7
			c-0.3-3.5-0.9-8.8-3.4-10.8c-0.8-0.7-1.8-0.9-3-0.8c-0.3,0-0.6-0.2-0.7-0.5c0-0.3,0.2-0.6,0.5-0.7c0,0,0,0,0,0
			c1.5-0.2,2.8,0.2,3.9,1.1c2.9,2.4,3.5,8,3.8,11.7c0.1,0.6,0.1,1.2,0.2,1.6c0.6,4.6,2.2,7.8,4.6,9.3c2.1,1.3,4.9,1.5,8.2,0.4
			c0.3-0.1,0.7,0.1,0.8,0.4c0.1,0.3-0.1,0.7-0.4,0.8C352.6,239.2,351.6,239.5,350.7,239.6z"/>
	</g>
	<g>
		<path class="st104" d="M363.7,277.9c-0.8,0.1-1.5,0.1-2.3-0.1c-0.3-0.1-0.5-0.4-0.4-0.7c0.1-0.3,0.4-0.5,0.7-0.4
			c3.8,0.9,8.8-4,10.5-7c0.7-1.3,1-3.1,1.3-5c0.6-3.5,1.2-7,4.2-8.3c0.3-0.1,0.7,0,0.8,0.3c0.1,0.3,0,0.7-0.3,0.8
			c-2.3,1-2.9,4.2-3.4,7.3c-0.4,2.1-0.7,4-1.5,5.4C371.8,272.9,367.8,277.3,363.7,277.9z"/>
	</g>
	<g>
		<path class="st104" d="M358.3,278.4c-0.8,0.1-1.6,0.1-2.4-0.1c-4.7-0.9-9.2-5.8-11.1-8.9c-1-1.7-1.5-4.1-2-6.8
			c-0.8-4.2-1.6-8.5-4.6-9.5c-0.3-0.1-0.5-0.4-0.4-0.8c0.1-0.3,0.5-0.5,0.8-0.4c3.7,1.2,4.6,6.1,5.4,10.4c0.5,2.5,0.9,4.9,1.8,6.4
			c1.7,2.8,6,7.5,10.3,8.3c1.6,0.3,3.1,0,4.4-1c0.3-0.2,0.6-0.2,0.9,0.1c0.2,0.3,0.2,0.7-0.1,0.9
			C360.4,277.9,359.4,278.3,358.3,278.4z"/>
	</g>
</g>
<g>
	<g>
		<path class="st119" d="M544.6,317.2c6.6-2,11.9-3.7,11.5-11c-0.2-3.8-2.1-6.3-6.2-8.1c-3.3-1.5-5-2-6-5.2
			c-1.6-5.2,0.5-10.6-3.2-15.5c-4.1-5.4-12.1-2.2-16.3-7.1c-3.7-4.3-6-10.1-13-9.4c-5.8,0.6-7.7,7-4.8,11.2c1.6,2.3,4.2,3.9,5.4,6.5
			c1.2,2.4,0.3,4.6-0.5,6.9c-1.6,5.2-1.7,10.4,4.2,13.5c3.6,1.8,6.3,3.4,5.4,7.3c-1,4-1.3,6.3,3.6,9.1c3.7,2.1,6.9,1.8,11.1,1.8
			c3.9,0,9.2,0.9,12.7-1L544.6,317.2z"/>
		<g>
			<path class="st104" d="M542.4,316.6c0.6-0.7,0.9-1.5,1-2.2c0.6-3.3-2.7-6.4-5.7-9.2c-1.5-1.4-3-2.8-3.7-3.9
				c-2-3.2-2.7-6.1-2.7-10.7c0-5.5-1.6-7.6-6.3-10.9c-3.9-2.8-7.8-5.8-9-9c-0.1-0.3-0.4-0.4-0.7-0.3c-0.3,0.1-0.5,0.4-0.4,0.6
				c1.4,3.4,5.4,6.6,9.4,9.4c4.5,3.2,6,5.1,6,10.3c0,3.9,0.5,7.3,2.9,11.1c0.8,1.2,2.3,2.6,3.8,4.1c2.9,2.7,6.1,5.7,5.6,8.6
				c-0.2,1.1-1,2.2-2.3,3.3c-0.2,0.2-0.3,0.4-0.1,0.6c0.2,0.1,0.5,0.1,0.7,0C541.5,317.6,542,317.1,542.4,316.6z"/>
		</g>
		<g>
			<path class="st104" d="M531.5,295.7c0.1-0.1,0.1-0.2,0.1-0.3c0-0.2-0.3-0.4-0.5-0.3c-2.6,0.4-4.6-1.5-6.9-3.6
				c-2-1.8-4-3.8-6.7-4.2c-0.3,0-0.6,0.1-0.7,0.4c-0.1,0.3,0.1,0.5,0.4,0.5c2.3,0.3,4.3,2.2,6.1,3.9c2.3,2.1,4.7,4.3,7.8,3.8
				C531.3,295.9,531.5,295.8,531.5,295.7z"/>
		</g>
		<g>
			<path class="st104" d="M534.2,302.2c0,0,0.1-0.1,0.1-0.2c0.2-0.7,0.3-1.2,0.3-1.8c0.1-0.9,0.2-1.6,0.9-2.6c0.4-0.5,0.8-1,1.2-1.4
				c0.8-1,1.7-1.9,2-3.4c0.4-2.2,0.2-4.8-0.8-7.9c-0.1-0.4-0.4-1-0.7-1.7c-0.4-0.9-1.2-2.6-1-3c0.1-0.2,0-0.5-0.3-0.6
				c-0.3-0.1-0.6,0-0.7,0.3c-0.4,0.7,0.1,1.9,1,3.7c0.3,0.6,0.5,1.2,0.7,1.6c0.6,2,1.3,5,0.8,7.5c-0.2,1.3-1,2.1-1.8,3
				c-0.4,0.5-0.9,1-1.3,1.6c-0.8,1.2-0.9,2.1-1,3.1c-0.1,0.5-0.1,1-0.3,1.6c-0.1,0.2,0.1,0.5,0.4,0.5
				C533.8,302.5,534.1,302.4,534.2,302.2z"/>
		</g>
	</g>
	<g>
		<path class="st120" d="M547.9,328c8.9-1.6,17.2-0.9,20.8-10.6c2.8-7.7-3.8-14.9,2.9-20.2c4-3.2,10.3-5.1,11.7-10.5
			c1.5-5.7-5.8-9.3-4.5-14.7c1.1-4.5,7.3-4.8,5.7-10.6c-1.4-5.2-6-6.5-9.6-5.5c-4.8,1.4-5.3,5.8-8.5,8.9c-2.1,2.1-5.2,0-8.3-0.4
			c-3.1-0.4-7.2-0.1-9.8,1.3c-8.6,4.5-1.7,14-3.3,21.8c-1.5,7.5-12.1,3-17.5,8.6c-6.4,6.6-1.6,17.9,4.7,23.3
			C536.3,322.9,541.9,329.1,547.9,328z"/>
		<g>
			<path class="st104" d="M539.3,326c0,0,0.1,0,0.1,0.1c0.3,0.1,0.6-0.1,0.7-0.4c0.1-0.2,5.8-19.5,19.9-32.2
				c7.9-7.2,9.8-14.5,11.3-20.3c0.9-3.4,1.6-6.2,3.3-7.8c0.1-0.1,0.1-0.4,0-0.6c-0.2-0.2-0.4-0.2-0.5-0.1c-1.8,1.7-2.6,4.6-3.5,8.1
				c-1.5,5.7-3.3,13-11.1,20c-14.3,12.9-20.2,32.5-20.3,32.7C539,325.7,539.1,325.9,539.3,326z"/>
		</g>
		<g>
			<path class="st104" d="M559.4,292.9c0.2,0.1,0.4,0.1,0.6,0c0.2-0.2,0.1-0.5-0.1-0.6c-2.8-2.8-4.7-8.2-2.8-11.6
				c0.2-0.4,0.5-0.8,0.7-1.3c1.3-2.1,2.8-4.7,2-7.2c-0.4-1.2-1.3-2.3-2.7-3.3c-0.2-0.2-0.5-0.1-0.6,0.1c-0.1,0.2,0,0.5,0.2,0.6
				c1.2,0.8,2,1.7,2.3,2.7c0.7,2.1-0.8,4.6-2,6.5c-0.3,0.5-0.5,0.9-0.8,1.3C554.2,284,556.3,289.8,559.4,292.9
				C559.4,292.9,559.4,292.9,559.4,292.9z"/>
		</g>
		<g>
			<path class="st104" d="M561.6,294.7c1.5,1.1,3,1.6,4.4,1.5c2.2-0.1,4.2-1.7,5.7-4.4c0.2-0.3,0.3-0.6,0.5-0.9
				c1-1.9,2.6-4.8,4.5-5.1c0.6-0.1,1.2,0.1,1.9,0.6c0.2,0.1,0.4,0.1,0.5-0.1c0.1-0.2,0-0.4-0.1-0.6c0,0,0,0,0,0
				c-0.8-0.6-1.6-0.9-2.4-0.8c-2.2,0.3-3.9,3.4-5,5.4c-0.2,0.3-0.4,0.7-0.5,0.9c-1.5,2.6-3.3,4-5.2,4.1c-1.7,0.1-3.5-0.8-5.4-2.7
				c-0.2-0.2-0.5-0.2-0.6,0c-0.2,0.2-0.1,0.5,0,0.6C560.5,293.8,561.1,294.3,561.6,294.7z"/>
		</g>
		<g>
			<path class="st104" d="M540.3,316.7c0.6,0.3,1.2,0.6,1.8,0.7c0.3,0,0.6-0.1,0.6-0.4c0-0.3-0.1-0.5-0.4-0.6
				c-3.4-0.6-5.6-6-5.9-8.9c-0.1-1.2,0.3-2.7,0.7-4.2c0.8-2.7,1.5-5.6-0.4-7.6c-0.2-0.2-0.5-0.3-0.8-0.1c-0.2,0.2-0.2,0.5,0,0.7
				c1.5,1.6,0.8,4.2,0.1,6.7c-0.5,1.6-0.9,3.2-0.8,4.6C535.5,310.1,537.2,314.9,540.3,316.7z"/>
		</g>
		<g>
			<path class="st104" d="M544.3,318.9c0.6,0.3,1.2,0.6,1.9,0.7c3.8,0.8,8.6-1.3,10.8-2.9c1.2-0.8,2.2-2.4,3.3-4.1
				c1.7-2.6,3.4-5.2,5.6-4.9c0.2,0,0.4-0.1,0.5-0.4c0-0.2-0.2-0.5-0.4-0.5c-2.7-0.4-4.6,2.5-6.4,5.2c-1,1.6-2.1,3.1-3.1,3.8
				c-2.1,1.4-6.6,3.5-10.1,2.8c-1.4-0.3-2.4-1-3.1-2.2c-0.1-0.2-0.5-0.3-0.7-0.2c-0.3,0.1-0.3,0.4-0.2,0.7
				C542.9,317.8,543.5,318.4,544.3,318.9z"/>
		</g>
	</g>
</g>
<g>
	<g>
		<path class="st119" d="M315.2,349.7c-7.2-2.1-12.9-4-12.4-11.8c0.3-4.1,2.3-6.8,6.7-8.8c3.6-1.6,5.4-2.1,6.5-5.7
			c1.7-5.6-0.5-11.4,3.5-16.7c4.5-5.9,13.1-2.4,17.6-7.6c4-4.7,6.5-10.9,14.1-10.2c6.3,0.6,8.3,7.6,5.2,12.1c-1.7,2.5-4.5,4.2-5.9,7
			c-1.3,2.6-0.3,4.9,0.5,7.5c1.8,5.6,1.8,11.3-4.5,14.5c-3.8,2-6.8,3.7-5.8,7.9c1,4.3,1.5,6.8-3.9,9.8c-4,2.3-7.5,1.9-11.9,1.9
			c-4.2,0-9.9,0.9-13.7-1.1L315.2,349.7z"/>
		<g>
			<path class="st104" d="M317.8,345.8c-0.6-0.7-0.9-1.5-1-2.2c-0.6-3.3,2.7-6.4,5.7-9.2c1.5-1.4,3-2.8,3.7-3.9
				c2-3.2,2.7-6.1,2.7-10.7c0-5.5,1.6-7.6,6.3-10.9c3.9-2.8,7.8-5.8,9-9c0.1-0.3,0.4-0.4,0.7-0.3c0.3,0.1,0.5,0.4,0.4,0.6
				c-1.4,3.4-5.4,6.6-9.4,9.4c-4.5,3.2-6,5.1-6,10.3c0,3.9-0.5,7.3-2.9,11.1c-0.8,1.2-2.3,2.6-3.8,4.1c-2.9,2.7-6.1,5.7-5.6,8.6
				c0.2,1.1,1,2.2,2.3,3.3c0.2,0.2,0.3,0.4,0.1,0.6c-0.2,0.1-0.5,0.1-0.7,0C318.8,346.9,318.3,346.4,317.8,345.8z"/>
		</g>
		<g>
			<path class="st104" d="M328.7,324.9c-0.1-0.1-0.1-0.2-0.1-0.3c0-0.2,0.3-0.4,0.5-0.3c2.6,0.4,4.6-1.5,6.9-3.6
				c2-1.8,4-3.8,6.7-4.2c0.3,0,0.6,0.1,0.7,0.4c0.1,0.3-0.1,0.5-0.4,0.5c-2.3,0.3-4.3,2.2-6.1,3.9c-2.3,2.1-4.7,4.3-7.8,3.8
				C329,325.1,328.8,325,328.7,324.9z"/>
		</g>
		<g>
			<path class="st104" d="M326.1,331.5c0,0-0.1-0.1-0.1-0.2c-0.2-0.7-0.3-1.2-0.3-1.8c-0.1-0.9-0.2-1.6-0.9-2.6
				c-0.4-0.5-0.8-1-1.2-1.4c-0.8-1-1.7-1.9-2-3.4c-0.4-2.2-0.2-4.8,0.8-7.9c0.1-0.4,0.4-1,0.7-1.7c0.4-0.9,1.2-2.6,1-3
				c-0.1-0.2,0-0.5,0.3-0.6c0.3-0.1,0.6,0,0.7,0.3c0.4,0.7-0.1,1.9-1,3.7c-0.3,0.6-0.5,1.2-0.7,1.6c-0.6,2-1.3,5-0.8,7.5
				c0.2,1.3,1,2.1,1.8,3c0.4,0.5,0.9,1,1.3,1.6c0.8,1.2,0.9,2.1,1,3.1c0.1,0.5,0.1,1,0.3,1.6c0.1,0.2-0.1,0.5-0.4,0.5
				C326.4,331.8,326.2,331.6,326.1,331.5z"/>
		</g>
	</g>
	<g>
		<path class="st120" d="M312.4,357.2c-8.9-1.6-17.2-0.9-20.8-10.6c-2.8-7.7,3.8-14.9-2.9-20.2c-4-3.2-10.3-5.1-11.7-10.5
			c-1.5-5.7,5.8-9.3,4.5-14.7c-1.1-4.5-7.3-4.8-5.7-10.6c1.4-5.2,6-6.5,9.6-5.5c4.8,1.4,5.3,5.8,8.5,8.9c2.1,2.1,5.2,0,8.3-0.4
			c3.1-0.4,7.2-0.1,9.8,1.3c8.6,4.5,1.7,14,3.3,21.8c1.5,7.5,12.1,3,17.5,8.6c6.4,6.6,1.6,17.9-4.7,23.3
			C324,352.1,318.4,358.3,312.4,357.2z"/>
		<g>
			<path class="st104" d="M321,355.3c0,0-0.1,0-0.1,0.1c-0.3,0.1-0.6-0.1-0.7-0.4c-0.1-0.2-5.8-19.5-19.9-32.2
				c-7.9-7.2-9.8-14.5-11.3-20.3c-0.9-3.4-1.6-6.2-3.3-7.8c-0.1-0.1-0.1-0.4,0-0.6c0.2-0.2,0.4-0.2,0.5-0.1c1.8,1.7,2.6,4.6,3.5,8.1
				c1.5,5.7,3.3,13,11.1,20c14.3,12.9,20.2,32.5,20.3,32.7C321.3,354.9,321.2,355.2,321,355.3z"/>
		</g>
		<g>
			<path class="st104" d="M300.8,322.2c-0.2,0.1-0.4,0.1-0.6,0c-0.2-0.2-0.1-0.5,0.1-0.6c2.8-2.8,4.7-8.2,2.8-11.6
				c-0.2-0.4-0.5-0.8-0.7-1.3c-1.3-2.1-2.8-4.7-2-7.2c0.4-1.2,1.3-2.3,2.7-3.3c0.2-0.2,0.5-0.1,0.6,0.1c0.1,0.2,0,0.5-0.2,0.6
				c-1.2,0.8-2,1.7-2.3,2.7c-0.7,2.1,0.8,4.6,2,6.5c0.3,0.5,0.5,0.9,0.8,1.3C306.1,313.3,304,319.1,300.8,322.2
				C300.9,322.2,300.9,322.2,300.8,322.2z"/>
		</g>
		<g>
			<path class="st104" d="M298.6,324c-1.5,1.1-3,1.6-4.4,1.5c-2.2-0.1-4.2-1.7-5.7-4.4c-0.2-0.3-0.3-0.6-0.5-0.9
				c-1-1.9-2.6-4.8-4.5-5.1c-0.6-0.1-1.2,0.1-1.9,0.6c-0.2,0.1-0.4,0.1-0.5-0.1c-0.1-0.2,0-0.4,0.1-0.6c0,0,0,0,0,0
				c0.8-0.6,1.6-0.9,2.4-0.8c2.2,0.3,3.9,3.4,5,5.4c0.2,0.3,0.4,0.7,0.5,0.9c1.5,2.6,3.3,4,5.2,4.1c1.7,0.1,3.5-0.8,5.4-2.7
				c0.2-0.2,0.5-0.2,0.6,0c0.2,0.2,0.1,0.5,0,0.6C299.8,323,299.2,323.5,298.6,324z"/>
		</g>
		<g>
			<path class="st104" d="M320,346c-0.6,0.3-1.2,0.6-1.8,0.7c-0.3,0-0.6-0.1-0.6-0.4c0-0.3,0.1-0.5,0.4-0.6c3.4-0.6,5.6-6,5.9-8.9
				c0.1-1.2-0.3-2.7-0.7-4.2c-0.8-2.7-1.5-5.6,0.4-7.6c0.2-0.2,0.5-0.3,0.8-0.1c0.2,0.2,0.2,0.5,0,0.7c-1.5,1.6-0.8,4.2-0.1,6.7
				c0.5,1.6,0.9,3.2,0.8,4.6C324.8,339.4,323.1,344.1,320,346z"/>
		</g>
		<g>
			<path class="st104" d="M316,348.2c-0.6,0.3-1.2,0.6-1.9,0.7c-3.8,0.8-8.6-1.3-10.8-2.9c-1.2-0.8-2.2-2.4-3.3-4.1
				c-1.7-2.6-3.4-5.2-5.6-4.9c-0.2,0-0.4-0.1-0.5-0.4c0-0.2,0.2-0.5,0.4-0.5c2.7-0.4,4.6,2.5,6.4,5.2c1,1.6,2.1,3.1,3.1,3.8
				c2.1,1.4,6.6,3.5,10.1,2.8c1.4-0.3,2.4-1,3.1-2.2c0.1-0.2,0.5-0.3,0.7-0.2c0.3,0.1,0.3,0.4,0.2,0.7
				C317.4,347.1,316.7,347.7,316,348.2z"/>
		</g>
	</g>
</g>
<path class="st1" d="M187.3,361.6c-2.2,13-1.1,26.6,2.7,39.5h408.2c2-0.4,3.4-1.9,3.4-3.7v-49.7H192.4
	C190,351.6,188.2,356.2,187.3,361.6z"/>
<g>
	<g>
		<polygon class="st109" points="395.3,344.1 368.1,344.1 370.4,311.4 393.1,311.4 		"/>
		<path class="st121" d="M372.8,335.9c6.8-2.3,14.8-3.9,21.5-7.2l-1.2-17.4h-22.7l-1.8,25.9C370,336.8,371.4,336.4,372.8,335.9z"/>
		<path class="st109" d="M398.8,338.8c-0.3-0.5-0.9-0.8-1.5-0.8h-15h-1.2h-15c-0.6,0-1.1,0.3-1.5,0.8l-4.1,6.1
			c-0.8,1.2,0.1,2.8,1.5,2.8h19.1h1.2h19.1c1.4,0,2.3-1.6,1.5-2.8L398.8,338.8z"/>
		<path class="st109" d="M448.2,320H315.3c-4.2,0-7.6-3.4-7.6-7.6v-84c0-4.2,3.4-7.6,7.6-7.6h132.9c4.2,0,7.6,3.4,7.6,7.6v84
			C455.8,316.6,452.4,320,448.2,320z"/>
		<linearGradient id="SVGID_2_" gradientUnits="userSpaceOnUse" x1="381.7144" y1="232.2505" x2="381.7144" y2="312.1841">
			<stop  offset="0" style="stop-color:#59C7EF"/>
			<stop  offset="0.1967" style="stop-color:#62CAF0"/>
			<stop  offset="0.5159" style="stop-color:#7AD4F2"/>
			<stop  offset="0.9155" style="stop-color:#A1E3F6"/>
			<stop  offset="1" style="stop-color:#AAE7F7"/>
		</linearGradient>
		<rect x="314.5" y="227.3" class="st122" width="134.5" height="85.1"/>
	</g>
	<g>
		<g>
			<rect x="346.4" y="236.5" class="st109" width="65" height="46.5"/>
			<rect x="349.3" y="246.4" class="st118" width="59.2" height="32.4"/>
			<path class="st118" d="M405.2,269.4c-2.9,0.7-6,2.2-9.1,2.1c-3.3-0.1-6.2-0.8-9.3-2c-4.6-1.8-7.2-2.4-11.9,0.2
				c-5.2,2.8-9.9,4.9-15.7,3c-3.5-1.2-5.8-3.5-9.8-3.6c0,0-0.1,0-0.1,0v9.6h59.2v-9.2C407.4,269.3,406.3,269.1,405.2,269.4z"/>
			<g>
				<path class="st123" d="M352.1,258.4c0.5,1,0,2.4,0.3,3.5c0.8,2.8,4.2,0,5.9,0.4c2.1,0.4,2.5,3.2,3.9,4.5
					c1.9,1.7,3.6-0.9,5.1-1.8c1.1-0.7,2.2-0.5,3.4-0.8c1.5-0.4,2.7-1.5,3.7-2.6c1.6-1.7,2.6-3.1,5.2-3c1.2,0,2.4,0.3,3.7,0.5
					c1.2,0.1,2.7-0.1,3.8,0.6c1.1,0.8,1,2.1,1.2,3.3c0.6,3.3,3.5,2,5.6,1.3c2.9-1,4,2.8,6.6,2.6c1.6-0.2,1.6-1.5,2.2-2.6
					c0.4-0.9,1.6-1.8,2.6-1.1c0.8,0.6,0.6,1.5,1.8,1.5c0.1,0,0.3,0,0.4,0c0.5-0.1,0.9-0.4,1.1-0.9v-3.2c0,0,0,0,0,0c0-1.3,0-2.7,0-4
					v-10h-59.2v11.3C349.3,257.4,351.8,257.7,352.1,258.4z"/>
				<path class="st123" d="M389.7,273.6c-0.1,0.1-0.1,0.2-0.1,0.2C389.6,273.9,389.6,273.8,389.7,273.6z"/>
			</g>
			<path class="st104" d="M364.1,253.3c4.2,3.7,7.3,16.3,13.2,13.9c3.3-1.3,14.9-13.9,18.5-14.3c3-0.3,4.8,0.9,7.4,2.8
				c2.3,1.6,5.3,4.6,5.3,4.6v-16.5h-59.2v12.2C355.4,251.5,358,247.9,364.1,253.3z"/>
			<path class="st104" d="M382,256.1c0,2.1-1.7,3.7-3.7,3.7c-2.1,0-3.7-1.7-3.7-3.7c0-2.1,1.7-3.7,3.7-3.7
				C380.4,252.3,382,254,382,256.1z"/>
			<linearGradient id="SVGID_3_" gradientUnits="userSpaceOnUse" x1="368.4634" y1="247.0033" x2="368.4634" y2="250.2529">
				<stop  offset="0" style="stop-color:#59C7EF"/>
				<stop  offset="0.1967" style="stop-color:#62CAF0"/>
				<stop  offset="0.5159" style="stop-color:#7AD4F2"/>
				<stop  offset="0.9155" style="stop-color:#A1E3F6"/>
				<stop  offset="1" style="stop-color:#AAE7F7"/>
			</linearGradient>
			<path class="st124" d="M364,250.2c2.4,0,4.8,0.1,7.2,0c0.9,0,2.9-0.4,2.5-1.8c-0.4-1.3-2.3-0.6-2.6,0.4c-0.1-2.8-4.1-2.4-2.9,0
				c-0.5-0.5-1.4-1.4-2.2-1.1c-0.7,0.3-0.9,1.2-0.2,1.6c-0.4-0.5-1.6-1.1-2.2-0.5C362.8,249.3,363.3,250.1,364,250.2z"/>
			<linearGradient id="SVGID_4_" gradientUnits="userSpaceOnUse" x1="398.577" y1="247.2526" x2="398.577" y2="249.9727">
				<stop  offset="0" style="stop-color:#59C7EF"/>
				<stop  offset="0.1967" style="stop-color:#62CAF0"/>
				<stop  offset="0.5159" style="stop-color:#7AD4F2"/>
				<stop  offset="0.9155" style="stop-color:#A1E3F6"/>
				<stop  offset="1" style="stop-color:#AAE7F7"/>
			</linearGradient>
			<path class="st125" d="M394.8,249.9c2,0,4,0.1,6,0c0.7,0,2.4-0.3,2.1-1.5c-0.3-1.1-1.9-0.5-2.2,0.3c-0.1-2.4-3.4-2-2.4,0
				c-0.4-0.4-1.1-1.2-1.8-0.9c-0.6,0.2-0.7,1-0.2,1.3c-0.3-0.4-1.4-0.9-1.9-0.4C393.9,249.2,394.2,249.9,394.8,249.9z"/>
			<linearGradient id="SVGID_5_" gradientUnits="userSpaceOnUse" x1="390.2772" y1="250.3959" x2="390.2772" y2="252.5456">
				<stop  offset="0" style="stop-color:#59C7EF"/>
				<stop  offset="0.1967" style="stop-color:#62CAF0"/>
				<stop  offset="0.5159" style="stop-color:#7AD4F2"/>
				<stop  offset="0.9155" style="stop-color:#A1E3F6"/>
				<stop  offset="1" style="stop-color:#AAE7F7"/>
			</linearGradient>
			<path class="st126" d="M387.3,252.5c1.6,0,3.2,0.1,4.8,0c0.6,0,1.9-0.3,1.6-1.2c-0.3-0.9-1.5-0.4-1.7,0.2c-0.1-1.9-2.7-1.6-1.9,0
				c-0.3-0.3-0.9-0.9-1.4-0.7c-0.5,0.2-0.6,0.8-0.1,1.1c-0.3-0.3-1.1-0.7-1.5-0.4C386.6,251.9,386.8,252.5,387.3,252.5z"/>
		</g>
		<g>
			<path class="st104" d="M351.1,239.1c-0.8,0-1.4,0.6-1.4,1.4c0,0.8,0.6,1.4,1.4,1.4c0.8,0,1.4-0.6,1.4-1.4
				C352.5,239.7,351.8,239.1,351.1,239.1z"/>
			<path class="st104" d="M355.7,239.1c-0.8,0-1.4,0.6-1.4,1.4c0,0.8,0.6,1.4,1.4,1.4s1.4-0.6,1.4-1.4
				C357,239.7,356.4,239.1,355.7,239.1z"/>
			<path class="st104" d="M360.2,239.1c-0.8,0-1.4,0.6-1.4,1.4c0,0.8,0.6,1.4,1.4,1.4s1.4-0.6,1.4-1.4
				C361.6,239.7,361,239.1,360.2,239.1z"/>
			<path class="st104" d="M407.2,239.1c-0.8,0-1.4,0.6-1.4,1.4c0,0.8,0.6,1.4,1.4,1.4c0.8,0,1.4-0.6,1.4-1.4
				C408.5,239.7,407.9,239.1,407.2,239.1z"/>
		</g>
	</g>
	<g>
		<path class="st112" d="M358.3,234.9c-0.3-0.1-1.2,0.2-1.8,0.6c-0.3,0.2-1,0.4-1.6,0.6c0.1,0.3,0.1,0.6,0.1,0.9c0,0,0.9-0.2,1-0.2
			c0.3-0.1,0.5-0.3,0.9-0.2c0.1,0,0.3,0.2,0.5,0.2c0.2,0.1,0.6,0.5,0.8,0.4c0.3-0.1-0.2-0.5-0.3-0.6c-0.1-0.2-0.1-0.4,0.2-0.4
			c0.3,0.1,0.9,0.5,1.2,0.3c0.4-0.2-0.9-0.6-1.2-0.7c0.4,0.2,1.6,0.6,1.7,0.3c0.2-0.4-1.1-0.6-1.5-0.8c0.4,0.2,0.8,0.3,1,0.2
			C359.8,235.4,358.5,235,358.3,234.9z"/>
		<g>
			<path class="st107" d="M341.9,245.7c0.9,0.8,2.3,0.7,3.2-0.1c1.4-1.3,4.2-3.7,5-4.4c1.2-0.9,6.7-4.4,6.7-4.4l-0.8-1.5
				c0,0-6.8,3-7.8,3.8c-1,0.8-6.6,4.1-6.8,5.5C341.3,245,341.6,245.4,341.9,245.7z"/>
			<path class="st113" d="M341.9,245.7c0.9,0.8,2.3,0.7,3.2-0.1c1.4-1.3,4.2-3.7,5-4.4c1.2-0.9,6.7-4.4,6.7-4.4l-0.8-1.5
				c0,0-6.8,3-7.8,3.8c-1,0.8-6.6,4.1-6.8,5.5C341.3,245,341.6,245.4,341.9,245.7z"/>
		</g>
		<g>
			<polygon class="st114" points="337.8,262.7 338.1,261.6 355.5,261.6 355.1,262.7 			"/>
			<polygon class="st114" points="335.7,268.9 336.1,267.7 353.5,267.7 353.1,268.9 			"/>
			<polygon class="st114" points="340.4,256.5 340.7,255.4 358.1,255.4 357.7,256.5 			"/>
			<polygon class="st114" points="333.6,275.1 334,274 351.5,274 351.1,275.1 			"/>
			<polygon class="st114" points="331.5,281.5 331.9,280.3 349.5,280.3 349.1,281.5 			"/>
			<polygon class="st114" points="329.4,287.8 329.8,286.6 347.5,286.6 347.1,287.8 			"/>
			<polygon class="st114" points="327.2,294.3 327.6,293.1 345.4,293.1 345.1,294.3 			"/>
			<polygon class="st114" points="325.4,300.7 325.8,299.5 343.6,299.5 343.2,300.7 			"/>
			<polygon class="st114" points="323.5,307.2 323.9,305.9 341.7,305.9 341.3,307.2 			"/>
			<polygon class="st114" points="321.6,313.6 322,312.4 339.8,312.4 339.5,313.6 			"/>
			<path class="st114" d="M318.5,323.4L318.5,323.4c-0.6,0-1-0.5-0.8-1.1l23-68.6c0.1-0.3,0.4-0.5,0.8-0.5h1.1l-23.3,69.6
				C319.1,323.2,318.8,323.4,318.5,323.4z"/>
			<path class="st114" d="M336.1,323.4L336.1,323.4c-0.6,0-1-0.5-0.9-1l22.3-68.6c0.1-0.3,0.4-0.6,0.8-0.6h0c0.5,0,0.9,0.5,0.8,1
				l-22.3,68.6C336.8,323.2,336.5,323.4,336.1,323.4z"/>
		</g>
		<g>
			<polygon class="st114" points="327.1,294.3 327.5,293.1 345.3,293.1 344.9,294.3 			"/>
			<polygon class="st114" points="324.9,300.6 325.3,299.4 343.3,299.4 342.9,300.6 			"/>
			<polygon class="st114" points="329.7,287.9 330.1,286.7 348,286.7 347.6,287.9 			"/>
			<polygon class="st114" points="322.8,307 323.2,305.8 341.2,305.8 340.8,307 			"/>
			<polygon class="st114" points="320.6,313.5 321,312.3 339.2,312.3 338.8,313.5 			"/>
			<polygon class="st114" points="318.4,320.1 318.9,318.8 337.1,318.8 336.7,320.1 			"/>
			<polygon class="st114" points="316.2,326.7 316.6,325.5 335,325.5 334.6,326.7 			"/>
			<polygon class="st114" points="314.3,333.3 314.7,332.1 333,332.1 332.6,333.3 			"/>
			<polygon class="st114" points="312.4,340 312.8,338.7 331.1,338.7 330.7,340 			"/>
			<path class="st114" d="M310.1,348L310.1,348c-0.6,0-1-0.6-0.9-1.1l20.8-61.9c0.1-0.3,0.4-0.6,0.8-0.6h1.2l-21.1,62.9
				C310.8,347.7,310.5,348,310.1,348z"/>
			<path class="st114" d="M328.3,348L328.3,348c-0.6,0-1-0.5-0.9-1.1l20-61.9c0.1-0.3,0.4-0.6,0.8-0.6h0c0.6,0,1,0.5,0.8,1.1
				l-20,61.9C329,347.7,328.6,348,328.3,348z"/>
		</g>
		<path class="st112" d="M342.9,239c0,0,0.1,0.1,0.1,0.1c0.3,0.3,0.7,0.7,1.1,1c0.2,0.2,0.6,0.3,0.8,0.4c0.1,0.1,0.2,0.1,0.3,0.2
			c-0.1,0.7-0.4,2.5-0.4,3.2c0,0-2.2-0.2-3-1C341.8,242.9,342.8,240.4,342.9,239z"/>
		<path class="st115" d="M344.1,242.7c-0.2-0.6-0.5-1.2-1-1.7c-0.2-0.1-0.3-0.3-0.5-0.4c0.2-0.6,0.3-1.2,0.3-1.6
			c0,0,0.1,0.1,0.1,0.1c0.3,0.3,0.7,0.7,1.1,1c0.2,0.2,0.6,0.3,0.8,0.4c0.1,0.1,0.2,0.1,0.3,0.2c-0.1,0.7-0.4,2.5-0.4,3.2
			c0,0-0.4,0-0.9-0.1C344.1,243.5,344.2,243.1,344.1,242.7z"/>
		<path class="st114" d="M344.1,278.2c0,0,0.1,2.2,0.4,2.5c0.3,0.3,4.7,0.4,5.1,0c0.4-0.4,0.2-1.1-0.8-1.3c-1-0.3-1.5,0-2.1-0.3
			c-0.6-0.3-0.5-1.3-0.5-1.3L344.1,278.2z"/>
		<path class="st114" d="M333.3,278.1c0,0-0.3,2.1,0,2.4c0.3,0.3,4.8,0.7,5.2,0.3c0.4-0.4,0.2-1.1-0.7-1.4c-1-0.3-1.5-0.1-2.1-0.3
			c-0.5-0.2-0.2-1.2-0.2-1.2L333.3,278.1z"/>
		<g>
			<path class="st116" d="M336.5,265.8c-0.1-6.1,0.6-10.2,0.9-12.2c0.7,0,1.4,0.1,2.2,0.4c1.3,0.6,2.7,1.2,4,1.8
				c-1.1,2.2-3.5,9.6-3.7,11.1c-0.4,1.9-4.3,11.6-4.3,11.6l-2.4-0.3C333.2,276.7,336.6,266.4,336.5,265.8z"/>
			<path class="st117" d="M341.5,255c0.7,0.3,1.4,0.6,2.2,0.9c-1.1,2.2-3,8.3-3.4,9.9c-0.3-1-2-3.5-2.6-6.2
				c-0.4-1.8-0.5-3.7-0.2-5.5c0,0,0,0,0,0C338.8,254.1,340.1,254.3,341.5,255z"/>
			<path class="st116" d="M339.7,254.6c0.9,0.3,2.6,0.8,3.9,1.2c0.9,2.3,3.6,7.6,3.7,10.1c0.2,2.7-0.8,12.8-0.8,12.8h-2.8
				c0,0-0.3-11.4-0.6-12.2c-1.3-2.4-2.7-4.3-3.5-5.8c-1.3-2.5-1.8-4.1-2-5.3c-0.1-0.5-0.6-2.3,0.3-2.8
				C338.7,252.8,338.9,254.4,339.7,254.6z"/>
		</g>
		<g>
			<path class="st107" d="M344.6,256.4c0,0-2.3,0.9-4.6,0.7c-1.7-0.2-2.6-0.2-3.6-0.7c0,0,1.1-8.2,2.3-10.8c1.2-2.6,3.2-3.1,3.2-3.1
				s1.6,0.9,2.9,0.9c0,0,0,5.1-0.1,7.1C344.6,252.5,344.6,256.4,344.6,256.4z"/>
			<path class="st113" d="M344.7,249.7c0-0.2,0-0.5,0-0.7c0,0,0-0.1,0-0.1c0-0.2,0-0.5,0-0.7c0,0,0-0.1,0-0.1c0-0.3,0-0.6,0-0.9
				c0,0,0,0,0,0c-0.1,0-0.2,0-0.3,0c-0.8-0.2-1.5-0.6-2.2-1c-0.1-0.1-0.2-0.1-0.4-0.2c-0.1,1.1,0.3,2.4,0.6,3.3
				c0.6,2.4,0.9,5.4,0.4,7.7c1-0.2,1.8-0.5,1.8-0.5s0-3.9,0.1-6c0-0.2,0-0.4,0-0.6C344.7,249.8,344.7,249.8,344.7,249.7z"/>
		</g>
		<path class="st112" d="M354.8,256.5c0.1,0,0.3,0,0.3,0c0.2,0.1,0.6,0,0.7-0.1c0.3-0.1,0.8-0.3,1.2-0.3c0.2,0,1.4,0.3,1.1,0.8
			c0,0.1-0.2,0.2-0.2,0.2c-0.1,0-0.5-0.2-0.5-0.2s0.3,0.1,0.3,0.1c0,0,0.1,0.1,0.2,0.1c0.1,0.1,0,0.3-0.1,0.4
			c-0.1,0-0.2-0.1-0.3-0.1c0,0,0,0,0,0c0.1,0.1,0.3,0.1,0.2,0.4c-0.1,0.3-0.2,0.1-0.3,0.1c0,0-0.1,0-0.1-0.1c0,0,0.2,0.1,0.2,0.1
			c0.1,0.1-0.1,0.4-0.4,0.4c-0.1,0-0.5-0.2-0.5-0.2c-0.1,0-0.2,0-0.3,0c-0.3,0-0.6,0-0.8-0.2c-0.1-0.1-0.3-0.1-0.4-0.2
			c-0.3-0.1-0.6-0.4-0.7-0.5C354.5,257,354.8,256.9,354.8,256.5z"/>
		<path class="st107" d="M354.3,258l1-1.9c0,0-4.8-3.1-6.6-4.8c-1.8-1.8-3.7-5.4-5-5.6c-1.3-0.2-2.7,0.5-1.9,2.4
			c0.8,1.9,4.7,4.3,5.5,5.2C348.2,254,353.6,257.5,354.3,258z"/>
		<path class="st112" d="M342.3,235.3c0,0,3.5-0.4,3.8,0.2c0.2,0.6,0.3,2.3,0.5,2.6c0.2,0.4,0.6,0.8,0.5,1c-0.2,0.2-0.3,0.2-0.4,0.4
			c-0.1,0.3-0.1,1.7-0.5,1.9c-0.5,0.2-2.9,0.1-3.7-1.3C341.5,238.8,340.5,235.4,342.3,235.3z"/>
		<path class="st127" d="M341.4,235.6l2.4,1.1c0,0-0.1,1.4,0.6,2.6c0,0-0.2,0.3-0.4,0.1c-0.2-0.2-0.4-0.3-0.4-0.6
			c-0.1-0.3-0.3-1.3-0.9-0.8s0,1,0.3,1.1c0,0,0.5,1.8-0.4,1.7c0,0-0.9-0.6-1.6-2.7S340.8,235.2,341.4,235.6z"/>
		<path class="st127" d="M347.1,234.8c0,0,0.8,1.2-1.1,2c-2,0.8-4.8-1.3-4.8-1.3s0.1-1.1,1.6-1.5c1.2-0.3,2.3-0.3,2.8,0.4
			C346.7,235.6,347.1,234.8,347.1,234.8z"/>
	</g>
	<g>
		<g>
			<polygon class="st109" points="428.8,312.4 431,294.1 369.6,287.1 366.7,312.4 			"/>
			<polygon class="st104" points="426.1,312.4 427.2,303.2 371.2,296.8 369.4,312.4 			"/>
		</g>
		<g>
			<path class="st104" d="M373.7,290c-0.7-0.1-1.3,0.4-1.4,1.1c-0.1,0.7,0.4,1.3,1.1,1.4c0.7,0.1,1.3-0.4,1.4-1.1
				C374.9,290.7,374.4,290.1,373.7,290z"/>
			<path class="st104" d="M378,290.5c-0.7-0.1-1.3,0.4-1.4,1.1c-0.1,0.7,0.4,1.3,1.1,1.4c0.7,0.1,1.3-0.4,1.4-1.1
				C379.2,291.2,378.7,290.6,378,290.5z"/>
			<path class="st104" d="M382.3,291c-0.7-0.1-1.3,0.4-1.4,1.1c-0.1,0.7,0.4,1.3,1.1,1.4c0.7,0.1,1.3-0.4,1.4-1.1
				C383.6,291.7,383.1,291.1,382.3,291z"/>
		</g>
	</g>
	<g>
		<g>
			<path class="st112" d="M422.5,292.5c0.3,0.1,0.6,1.1,0.7,1.7c0,0.4,0.3,1,0.6,1.6c-0.3,0.1-0.5,0.3-0.8,0.5c0,0-0.4-0.8-0.5-0.8
				c-0.1-0.3-0.1-0.6-0.4-0.8c-0.1-0.1-0.3-0.1-0.5-0.2c-0.2-0.1-0.8-0.1-0.9-0.3c-0.1-0.3,0.5-0.2,0.6-0.2c0.2,0,0.4-0.2,0.2-0.4
				c-0.3-0.2-0.9-0.4-1-0.7c-0.1-0.5,1.1,0.3,1.3,0.4c-0.4-0.2-1.5-0.9-1.4-1.1c0.2-0.4,1.2,0.4,1.6,0.6c-0.4-0.2-0.7-0.4-0.8-0.6
				C421,291.6,422.2,292.3,422.5,292.5z"/>
			<path class="st120" d="M435.7,308.7c0.6-1.1,0.3-2.5-0.7-3.3c-1.6-1.3-4.7-3.7-5.5-4.5c-1.2-1.1-5.8-6.3-5.8-6.3l-1.5,1.1
				c0,0,4.4,6.7,5.4,7.5c1,0.9,5.5,6.2,7,6.2C435.1,309.5,435.4,309.1,435.7,308.7z"/>
			<path class="st128" d="M435.7,308.7c0.6-1.1,0.3-2.5-0.7-3.3c-1.6-1.3-4.7-3.7-5.5-4.5c-1.2-1.1-5.8-6.3-5.8-6.3l-1.5,1.1
				c0,0,4.4,6.7,5.4,7.5c1,0.9,5.5,6.2,7,6.2C435.1,309.5,435.4,309.1,435.7,308.7z"/>
		</g>
		<path class="st112" d="M434.5,302.3c0,0-0.1,0.1-0.1,0.1c-0.4,0.4-0.7,0.8-1.2,1c-0.3,0.2-0.7,0.3-0.9,0.5
			c-0.1,0.1-0.2,0.1-0.3,0.2c0.1,0.7,0.5,2.7,0.5,3.4c0,0,2.3-0.2,3.2-1.2C435.7,306.4,434.7,303.8,434.5,302.3z"/>
		<path class="st115" d="M433.3,306.2c0.2-0.7,0.5-1.3,1-1.8c0.2-0.2,0.4-0.3,0.6-0.4c-0.2-0.6-0.3-1.2-0.4-1.7c0,0-0.1,0.1-0.1,0.1
			c-0.4,0.4-0.7,0.8-1.2,1c-0.3,0.2-0.7,0.3-0.9,0.5c-0.1,0.1-0.2,0.1-0.3,0.2c0.1,0.7,0.5,2.7,0.5,3.4c0,0,0.4,0,0.9-0.1
			C433.3,307.1,433.2,306.6,433.3,306.2z"/>
		<path class="st127" d="M429.9,345.4c0,0,0,2.3-0.3,2.7c-0.4,0.3-5,0.7-5.4,0.3c-0.4-0.4-0.2-1.1,0.8-1.5c1.1-0.3,1.6-0.1,2.3-0.4
			c0.7-0.3,0.4-1.4,0.4-1.4L429.9,345.4z"/>
		<path class="st127" d="M441.3,344.7c0,0,0.6,2.2,0.3,2.6c-0.3,0.4-5,1.2-5.5,0.8c-0.5-0.4-0.3-1.1,0.6-1.5c1-0.4,1.6-0.2,2.2-0.6
			c0.6-0.4,0.3-1.4,0.3-1.4L441.3,344.7z"/>
		<path class="st116" d="M441.3,331.2c0.5-6.5,0-11-0.2-13.1c-0.8,0-1.6,0-2.3,0.3c-1.5,0.6-2.9,1.1-4.4,1.6
			c1,2.5,3.1,10.4,3.3,12.1c0.3,2.1,1.3,13.3,1.3,13.3l2.6,0C441.7,343.8,441.3,331.7,441.3,331.2z"/>
		<path class="st117" d="M436.7,319.2c-0.8,0.3-1.6,0.6-2.4,0.8c1,2.4,3.1,10.3,3.3,12.1c0.4-1.1,2.1-4.9,2.9-7.7
			c0.6-1.9,0.7-3.9,0.6-5.9c0,0,0,0,0,0C439.7,318.5,438.3,318.6,436.7,319.2z"/>
		<path class="st116" d="M438.6,319c-1,0.3-2.9,0.7-4.3,1.1c-1.1,2.4-4.1,9.2-4.7,11.7c-0.8,3.5-2.4,13.9-2.4,13.9l3,0.5
			c0,0,3.5-13.9,4-14.7c1.5-2.5,3.1-4.5,4.1-6c2.3-3.8,2.5-5.7,2.8-7C440.3,318.7,439.5,318.7,438.6,319z"/>
		<g>
			<path class="st120" d="M433,320.9c0,0,2.4,0.4,4.8,0.1c1.8-0.2,3.5-0.9,3.8-1.5c0,0-1.2-7.5-2.6-10.3c-1.4-2.8-3.5-3.2-3.5-3.2
				s-1.7,1-3,1c0,0,0.1,5.4,0.3,7.6C432.9,316.7,433,320.9,433,320.9z"/>
			<path class="st128" d="M435.2,313.2c0.2-0.9,0.7-2.3,0.5-3.5c-0.1,0.1-0.3,0.1-0.4,0.2c-0.7,0.5-1.5,0.9-2.3,1.1
				c-0.1,0-0.2,0-0.3,0c0,1.3,0.1,2.6,0.2,3.5c0.1,2.2,0.2,6.4,0.2,6.4s0.7,0.1,1.7,0.2C434.1,318.6,434.6,315.8,435.2,313.2z"/>
		</g>
		<path class="st112" d="M435.4,299.9c0,0-1.1-2.1-2.4-1.9c-1.3,0.1-2.2,0.4-2.3,0.9c-0.2,0.5-0.4,1.9-0.7,2.5c-0.3,0.5-1,1.2-1,1.5
			c0,0.2,0.8,0.3,0.8,0.4c0,0.1,0.5,1.8,0.8,2c0.3,0.2,2.8-0.9,3.2-1.7C434.1,302.7,435.6,301.2,435.4,299.9z"/>
		<path class="st127" d="M432.7,300.1c-0.3,0.3-1.2,0.6-2.6,0c-1.4-0.6-0.9-3.9,2.1-3.7c3,0.2,2.9,1.2,3.4,1.4
			c0.6,0.2,1,0.5,1.2,1.1c0.4,1,0.5,2.3-0.8,3.5c-1.4,1.3-2.3,1.1-2.3,1.1c-0.1-0.4-0.1-1,0.3-1.2c0.1-0.1,0.3-0.1,0.5-0.3
			c0.4-0.3,0.1-1.1-0.6-1c-0.3,0.1-0.5,0.6-0.7,0.9c-0.2,0.2-0.3,0.2-0.4,0.1c-0.2-0.1-0.4-0.7,0.1-1.4
			C433.1,300.3,433,299.8,432.7,300.1z"/>
		<g>
			<path class="st112" d="M418.2,311.9c-0.4,0-0.7-0.1-1.1-0.3c-0.1-0.1-0.3-0.2-0.5-0.2c-0.2,0-0.4-0.1-0.5-0.2
				c-0.2-0.1-0.4-0.2-0.6-0.2c-0.2,0-0.1,0.3,0.1,0.4c0.2,0.2,0.9,0.3,0.9,0.5c0,0.2-0.8,0-1,0c-0.4-0.1-0.5-0.4-0.8-0.6
				c-0.2-0.1-0.3-0.2-0.3,0.1c0,0.2,0.1,0.3,0.3,0.5c0.2,0.2,0.6,0.5,0.9,0.6c-0.3,0-0.7-0.3-0.9-0.5c-0.2-0.1-0.7-0.7-0.9-0.5
				c-0.4,0.4,1.2,1.4,1.6,1.4c-0.3-0.1-0.6-0.2-0.9-0.4c-0.2-0.1-0.6-0.3-0.6,0c0,0.5,1.1,0.7,1.6,0.8c-0.3,0-0.6-0.1-0.9-0.2
				c-0.4-0.1-0.3,0.2,0.1,0.4c0.2,0.1,0.5,0.2,0.6,0.2c0.8,0.2,1.3,0.1,2.1-0.2c0.3-0.1,0.9,0,1-0.2
				C418.7,313,418.3,312.3,418.2,311.9z"/>
			<path class="st120" d="M417.5,313.8l0-2.1c0,0,6.3-0.8,9-1.5c2.7-0.7,6.5-3.1,7.9-2.5c1.4,0.5,2.3,2,0.5,3.4
				c-1.8,1.3-6.9,1.5-8.2,1.8C425.6,313.1,418.5,313.8,417.5,313.8z"/>
		</g>
	</g>
</g>
<g>
	<g>
		<path class="st109" d="M541.8,347.8h-71.3c-1,0-1.7-0.8-1.7-1.7v-46.7c0-1,0.8-1.7,1.7-1.7h71.3c1,0,1.7,0.8,1.7,1.7v46.7
			C543.5,347.1,542.7,347.8,541.8,347.8z"/>
		<linearGradient id="SVGID_6_" gradientUnits="userSpaceOnUse" x1="504.3865" y1="299.7689" x2="504.3865" y2="344.4089">
			<stop  offset="0" style="stop-color:#59C7EF"/>
			<stop  offset="0.1967" style="stop-color:#62CAF0"/>
			<stop  offset="0.5159" style="stop-color:#7AD4F2"/>
			<stop  offset="0.9155" style="stop-color:#A1E3F6"/>
			<stop  offset="1" style="stop-color:#AAE7F7"/>
		</linearGradient>
		<rect x="472.1" y="301" class="st129" width="64.5" height="43"/>
		<path class="st104" d="M541.2,322.8c0,0.7-0.6,1.4-1.4,1.4c-0.7,0-1.4-0.6-1.4-1.4c0-0.7,0.6-1.4,1.4-1.4
			C540.6,321.4,541.2,322,541.2,322.8z"/>
	</g>
	<linearGradient id="SVGID_7_" gradientUnits="userSpaceOnUse" x1="505.3921" y1="311.8846" x2="505.3921" y2="334.5647">
		<stop  offset="0" style="stop-color:#F054F5"/>
		<stop  offset="0.1393" style="stop-color:#EB53F5"/>
		<stop  offset="0.2939" style="stop-color:#DE51F6"/>
		<stop  offset="0.4558" style="stop-color:#C84DF7"/>
		<stop  offset="0.6228" style="stop-color:#A948F9"/>
		<stop  offset="0.7937" style="stop-color:#8141FC"/>
		<stop  offset="0.9655" style="stop-color:#5139FF"/>
		<stop  offset="0.984" style="stop-color:#4B38FF"/>
		<stop  offset="0.9893" style="stop-color:#43ECFF"/>
	</linearGradient>
	<path class="st130" d="M530.1,324.9c-1-0.1-2-0.5-2.8-1c-0.9-0.6-1.8-1.2-2.8-1.8c-0.5-0.3-1-0.7-1.6-0.9c-0.2-0.1-0.5-0.2-0.8-0.2
		c-0.2,0-0.4-0.1-0.5-0.1c-1-0.1-1.7,0.6-2.3,1.2c-0.5,0.5-1,1.2-1.8,1c-0.5-0.1-0.9-0.5-1.2-0.9c-0.6-0.7-0.4-2.3-1.1-2.8
		c-1-0.9-1.6,0.1-2.7,0.3c-2.5,0.5-2.9-2.3-3.5-4.2c-0.4-1.4-0.9-2.1-1.6-2.5c-0.7-0.4-1.4-0.6-2.2-0.7c-0.8,0-1.5,0.2-2.2,0.7
		c-0.7,0.5-1.1,1.1-1.6,2.5c-0.6,2-1,4.7-3.5,4.2c-1-0.2-1.6-1.2-2.7-0.3c-0.6,0.6-0.4,2.1-1.1,2.8c-0.3,0.4-0.7,0.8-1.2,0.9
		c-0.7,0.2-1.3-0.5-1.8-1c-0.6-0.6-1.3-1.3-2.3-1.2c-0.2,0-0.4,0.1-0.5,0.1c-0.3,0.1-0.5,0.1-0.8,0.2c-0.5,0.2-1.1,0.6-1.6,0.9
		c-0.9,0.6-1.8,1.2-2.8,1.8c-0.8,0.5-1.8,0.9-2.8,1c-0.8,0.1-4.3,0-5-0.1c3.9,1.1,11.5,4.9,15.2,4.3c3.1-0.5,5-1.6,7.5,1.1
		c0.9,0.9,1.9,2.5,3,3.3c0.7,0.5,2.3,1.3,4,1.3c1.7,0,3.3-0.8,4-1.3c1-0.8,2.1-2.3,3-3.3c2.6-2.7,4.4-1.5,7.5-1.1
		c3.7,0.6,11.3-3.2,15.2-4.3C534.4,324.9,530.9,325,530.1,324.9z"/>
	<g class="st131">
		<g>
			<path class="st104" d="M476.4,326.5c-0.1,0-0.1-0.1-0.1-0.1v-7.2c0-0.1,0.1-0.1,0.1-0.1c0.1,0,0.1,0.1,0.1,0.1v7.2
				C476.6,326.4,476.5,326.5,476.4,326.5z"/>
		</g>
		<g>
			<path class="st104" d="M480.5,328.7c-0.1,0-0.1-0.1-0.1-0.1V317c0-0.1,0.1-0.1,0.1-0.1s0.1,0.1,0.1,0.1v11.6
				C480.7,328.6,480.6,328.7,480.5,328.7z"/>
		</g>
		<g>
			<path class="st104" d="M484.7,333c-0.1,0-0.1-0.1-0.1-0.1v-20.2c0-0.1,0.1-0.1,0.1-0.1c0.1,0,0.1,0.1,0.1,0.1v20.2
				C484.8,332.9,484.7,333,484.7,333z"/>
		</g>
		<g>
			<path class="st104" d="M488.8,329.2c-0.1,0-0.1-0.1-0.1-0.1v-12.5c0-0.1,0.1-0.1,0.1-0.1c0.1,0,0.1,0.1,0.1,0.1V329
				C488.9,329.1,488.9,329.2,488.8,329.2z"/>
		</g>
		<g>
			<path class="st104" d="M492.9,326.5c-0.1,0-0.1-0.1-0.1-0.1v-7.2c0-0.1,0.1-0.1,0.1-0.1c0.1,0,0.1,0.1,0.1,0.1v7.2
				C493.1,326.4,493,326.5,492.9,326.5z"/>
		</g>
		<g>
			<path class="st104" d="M497.1,328.5c-0.1,0-0.1-0.1-0.1-0.1v-11.2c0-0.1,0.1-0.1,0.1-0.1c0.1,0,0.1,0.1,0.1,0.1v11.2
				C497.2,328.5,497.1,328.5,497.1,328.5z"/>
		</g>
		<g>
			<path class="st104" d="M501.2,331.6c-0.1,0-0.1-0.1-0.1-0.1v-17.3c0-0.1,0.1-0.1,0.1-0.1c0.1,0,0.1,0.1,0.1,0.1v17.3
				C501.3,331.5,501.3,331.6,501.2,331.6z"/>
		</g>
		<g>
			<path class="st104" d="M505.3,336.4c-0.1,0-0.1-0.1-0.1-0.1v-26.9c0-0.1,0.1-0.1,0.1-0.1s0.1,0.1,0.1,0.1v26.9
				C505.5,336.3,505.4,336.4,505.3,336.4z"/>
		</g>
		<g>
			<path class="st104" d="M509.4,331.6c-0.1,0-0.1-0.1-0.1-0.1v-17.3c0-0.1,0.1-0.1,0.1-0.1s0.1,0.1,0.1,0.1v17.3
				C509.6,331.5,509.5,331.6,509.4,331.6z"/>
		</g>
		<g>
			<path class="st104" d="M513.6,328.5c-0.1,0-0.1-0.1-0.1-0.1v-11.2c0-0.1,0.1-0.1,0.1-0.1c0.1,0,0.1,0.1,0.1,0.1v11.2
				C513.7,328.5,513.6,328.5,513.6,328.5z"/>
		</g>
		<g>
			<path class="st104" d="M517.7,329.2c-0.1,0-0.1-0.1-0.1-0.1v-12.5c0-0.1,0.1-0.1,0.1-0.1c0.1,0,0.1,0.1,0.1,0.1V329
				C517.8,329.1,517.8,329.2,517.7,329.2z"/>
		</g>
		<g>
			<path class="st104" d="M521.8,333c-0.1,0-0.1-0.1-0.1-0.1v-20.2c0-0.1,0.1-0.1,0.1-0.1c0.1,0,0.1,0.1,0.1,0.1v20.2
				C522,332.9,521.9,333,521.8,333z"/>
		</g>
		<g>
			<path class="st104" d="M526,328.7c-0.1,0-0.1-0.1-0.1-0.1V317c0-0.1,0.1-0.1,0.1-0.1s0.1,0.1,0.1,0.1v11.6
				C526.1,328.6,526,328.7,526,328.7z"/>
		</g>
		<g>
			<path class="st104" d="M530.1,326.5c-0.1,0-0.1-0.1-0.1-0.1v-7.2c0-0.1,0.1-0.1,0.1-0.1s0.1,0.1,0.1,0.1v7.2
				C530.2,326.4,530.2,326.5,530.1,326.5z"/>
		</g>
	</g>
	<g>
		<path class="st132" d="M511.5,324.5c0,3.4-2.8,6.2-6.2,6.2s-6.2-2.8-6.2-6.2c0-3.4,2.8-6.2,6.2-6.2S511.5,321,511.5,324.5z"/>
		<g>
			<path class="st104" d="M505.3,331c-3.6,0-6.5-2.9-6.5-6.5s2.9-6.5,6.5-6.5c3.6,0,6.5,2.9,6.5,6.5S508.9,331,505.3,331z
				 M505.3,318.5c-3.3,0-6,2.7-6,6c0,3.3,2.7,6,6,6c3.3,0,6-2.7,6-6C511.3,321.2,508.6,318.5,505.3,318.5z"/>
		</g>
	</g>
	<g>
		<path class="st104" d="M505.3,326.2L505.3,326.2c-0.5,0-0.9-0.4-0.9-0.9v-3.4c0-0.5,0.4-0.9,0.9-0.9h0c0.5,0,0.9,0.4,0.9,0.9v3.4
			C506.2,325.8,505.8,326.2,505.3,326.2z"/>
		<rect x="504.3" y="327.5" class="st104" width="2.1" height="0.4"/>
		<rect x="505.1" y="326.1" class="st104" width="0.4" height="1.6"/>
		<path class="st104" d="M506.6,324.9c0,0.4-0.1,0.9-0.4,1.2c-0.2,0.2-0.5,0.3-0.9,0.3c-0.4,0-0.7-0.1-0.9-0.3
			c-0.3-0.3-0.4-0.9-0.4-1.2h-0.4c0,0.4,0.1,1.1,0.5,1.5c0.3,0.3,0.7,0.4,1.1,0.4c0,0,0.1,0,0.1,0c0,0,0.1,0,0.1,0
			c0.5,0,0.9-0.1,1.1-0.4c0.4-0.4,0.5-1.1,0.5-1.5H506.6z"/>
	</g>
	<g>
		<path class="st104" d="M524.3,305.8c0,0.3-0.2,0.5-0.5,0.5s-0.5-0.2-0.5-0.5c0-0.3,0.2-0.5,0.5-0.5S524.3,305.5,524.3,305.8z"/>
		<path class="st104" d="M526.3,305.8c0,0.3-0.2,0.5-0.5,0.5c-0.3,0-0.5-0.2-0.5-0.5c0-0.3,0.2-0.5,0.5-0.5
			C526.1,305.3,526.3,305.5,526.3,305.8z"/>
		<circle class="st104" cx="527.8" cy="305.8" r="0.5"/>
	</g>
	<g>
		<path class="st104" d="M488.8,338c0,0.3-0.2,0.5-0.5,0.5s-0.5-0.2-0.5-0.5c0-0.3,0.2-0.5,0.5-0.5S488.8,337.7,488.8,338z"/>
		<path class="st104" d="M490.8,338c0,0.3-0.2,0.5-0.5,0.5c-0.3,0-0.5-0.2-0.5-0.5c0-0.3,0.2-0.5,0.5-0.5
			C490.6,337.5,490.8,337.7,490.8,338z"/>
		<path class="st104" d="M492.8,338c0,0.3-0.2,0.5-0.5,0.5c-0.3,0-0.5-0.2-0.5-0.5c0-0.3,0.2-0.5,0.5-0.5
			C492.6,337.5,492.8,337.7,492.8,338z"/>
	</g>
</g>
<g>
	<polygon class="st104" points="533.3,360.4 532.7,358.6 504.8,358.6 505.4,360.4 	"/>
	<polygon class="st104" points="536.6,369.9 536,368.1 507.9,368.1 508.5,369.9 	"/>
	<polygon class="st104" points="540,379.5 539.3,377.7 511.1,377.7 511.7,379.5 	"/>
	<polygon class="st104" points="543.4,389.2 542.7,387.4 514.4,387.4 515,389.2 	"/>
	<polygon class="st104" points="546.8,399 546.1,397.2 517.6,397.2 518.2,399 	"/>
	<path class="st104" d="M547.7,401.2l-19.1-54.6c-0.2-0.5-0.7-0.8-1.2-0.8h-1.8l19.3,55.4H547.7z"/>
	<path class="st104" d="M516.8,401.2h2.8l-18.2-54.6c-0.2-0.5-0.7-0.9-1.2-0.9h0c-0.9,0-1.5,0.8-1.2,1.6L516.8,401.2z"/>
</g>
<g>
	<path class="st114" d="M574.1,344.8c0,0-0.5,2.3-0.2,2.9c0.3,0.7,7.2,0.9,7.6,0.4c0.4-0.5-0.3-1.2-0.6-1.4c-0.4-0.2-5-1.9-5-1.9
		H574.1z"/>
	<path class="st114" d="M565.2,344.2h1.9c0,0,0.2,2.5,0.1,3c-0.2,0.5-2.3,2.9-3.5,2.9c-0.7,0-1.5,0-1.6-0.6
		c-0.1-0.5,0.4-1.5,0.8-2.1C563.6,346.2,565.2,344.2,565.2,344.2z"/>
	<g>
		<path class="st107" d="M574.5,316.6c0,0-4.2,1.2-6.9-0.1c0,0-1.6,1.3-1.9,4.1c-0.1,0.8-1.8,24.7-1.8,24.7h3.6c0,0,1.2-12.4,1.5-14
			c0.3-1.6,2-8.9,2-8.9s1.5,6.5,1.9,8.9c0.1,0.4,0.8,13.8,0.8,13.8l3.5,0c0,0-0.5-14.7-0.5-13.9C576.7,331.6,576.3,321,574.5,316.6z
			"/>
		<path class="st116" d="M582.2,298.7l2.5,5.6c0,0-0.7,0.8-1,0.6c-0.2-0.2-4-4.7-4.4-5C579,299.8,582.2,298.7,582.2,298.7z"/>
		<path class="st117" d="M580.2,300.7c0.6-0.3,1.3-0.4,1.9-0.6c0.2-0.1,0.5-0.2,0.7-0.3l-0.5-1.1c0,0-3.2,1.1-2.9,1.3
			C579.4,300,579.7,300.3,580.2,300.7C580.1,300.8,580.1,300.7,580.2,300.7z"/>
		<path class="st104" d="M575.9,299.4c0,0,0,1.6,1,2c0,0,5.1-2.1,6.1-2.3c1-0.2,4.7-0.2,4.7-0.2l-3.7-6.7c0,0-1.8,3.6-3.4,4.8
			C578.9,298.1,575.9,299.4,575.9,299.4z"/>
		<path class="st114" d="M579.2,300.5c0.4-0.2,0.8-0.3,1.2-0.5c-0.6-0.7-0.9-1.7-1.1-2.3c-0.4,0.2-0.8,0.4-1.2,0.6
			C578.4,299.2,578.8,299.9,579.2,300.5z"/>
		<path class="st133" d="M589.1,293.9c1.1,2.5,0.7,5.1-0.8,5.7c-1.5,0.6-3.6-0.9-4.7-3.5c-1.1-2.5-0.7-5.1,0.8-5.7
			C586,289.8,588.1,291.4,589.1,293.9z"/>
		<path class="st114" d="M588.9,294c0.9,2.2,0.6,4.4-0.7,4.9c-1.3,0.5-3.1-0.8-4-3c-0.9-2.2-0.6-4.4,0.7-4.9
			C586.3,290.5,588,291.8,588.9,294z"/>
		<path class="st112" d="M581.9,302.8c-0.1-0.1-0.1-0.5-0.1-0.6c0-0.2,0.2-0.4,0-0.6c-0.2-0.3-0.5,0.5-0.6,0.6
			c-0.1,0.2-0.1,0.4-0.1,0.6c0,0.1,0.3,0.6,0.5,0.7c0,0.1,0,0.2-0.1,0.3c0.2,0.1,0.4,0.2,0.6,0.3c0.2,0.1,0.2,0.3,0.5,0.5l0.2-0.5
			C582.8,303.8,582.1,302.9,581.9,302.8z"/>
		<path class="st112" d="M583.5,300.9c-0.2-0.2-0.6-0.1-0.8,0c-0.2,0.1-0.8,0.6-0.6,0.9c0.1,0.3,0.8-0.3,0.8-0.3
			c-0.3,0.2-0.8,0.4-0.6,0.6c0.1,0.3,0.8-0.1,0.9-0.2c-0.1,0-0.8,0.5-0.6,0.7c0.2,0.2,0.7-0.2,0.9-0.3c-0.2,0.1-0.5,0.2-0.4,0.5
			c0.1,0.2,0.4,0.1,0.6,0c0.3-0.1,0.5-0.1,0.5-0.5c0-0.1,0-0.1,0-0.2c0-0.2-0.1-0.5-0.2-0.7C583.8,301.3,583.7,301.1,583.5,300.9z"
			/>
		<path class="st112" d="M567.7,299.6c0,0,1.2,4.7,0.5,5.1c0,0,2.5,5.1,3.6,4.9c1.1-0.2,0.5-4.6,0.5-4.6s-0.4-0.1-0.8-0.5
			c-0.2-0.2-1-3.1-1-3.1L567.7,299.6z"/>
		<path class="st115" d="M569.8,307.4c-0.4-0.5-0.7-1.3-0.6-1.9c0.1-1,1.1-1.5,2-1.8c-0.2-1-0.7-2.3-0.7-2.3l-2.8-1.8
			c0,0,1.2,4.7,0.5,5.1c0,0,2.5,5.1,3.6,4.9c0.3-0.1,0.5-0.4,0.6-0.9C571.3,308.9,570.4,308.2,569.8,307.4z"/>
		<path class="st112" d="M556.8,302.8c-0.1-0.2-0.2-0.4-0.3-0.6c-0.1-0.2-0.1-0.4-0.2-0.6c-0.1-0.2-0.1-0.4-0.1-0.6
			c0-0.1,0-0.2,0.1-0.3c0-0.1,0.1-0.3,0.1-0.4c0-0.1,0-0.3,0-0.4c0-0.2,0.1-0.5,0.2-0.7c0.1-0.2,0.2-0.3,0.3-0.4
			c0.1-0.1,0.1-0.1,0.2-0.2c0.1-0.1,0.1-0.1,0.2-0.2c0-0.1,0-0.2-0.2-0.3c-0.2-0.1-0.6,0-0.7,0.2c-0.2,0.3-0.3,0.6-0.5,0.8
			c-0.7,0.8-1.3-0.1-2-0.5c-0.2-0.1-0.5-0.3-0.7-0.5c-0.1-0.1-0.7-0.7-1-0.5c-0.2,0.1,0.2,0.6,0.4,0.7c0.1,0,0.7,0.6,0.8,0.6
			c-0.2,0-0.7-0.4-1.1-0.7c-0.3-0.2-0.6-0.4-0.7-0.3c-0.5,0.4,1.4,1.3,1.6,1.4c-0.2,0-1.6-1-1.8-0.7c-0.1,0.2,0.2,0.4,0.5,0.6
			c0.3,0.2,0.8,0.3,1,0.4c-0.2,0.1-1.2-0.6-1.2-0.2c0,0.3,0.6,0.5,0.8,0.5c0.2,0.1,0.9,0.5,1.2,0.6c0.7,0.3,1,0.3,1.3,0.7
			c0.2,0.3,0.5,1.8,0.8,2.3L556.8,302.8z"/>
		<path class="st114" d="M581.5,303.5c-0.7,1.9-2.1,5.3-2.5,5c-0.9-0.4-2.7-2-4.1-2.9c-1.1-0.7-1.6-0.9-1.6-0.9l1,4.6
			c0,0,4.6,3.5,5.6,3c0.8-0.4,2.6-5.7,3.3-7.9C583,304.3,581.5,303.5,581.5,303.5z"/>
		<path class="st134" d="M576.9,310.1c-0.5-0.7-2.5-2.6-3-3l0.2,2.2c0,0,4.6,3.5,5.7,3C578.8,311.7,577.6,310.9,576.9,310.1z"/>
		<path class="st114" d="M573.2,304.7l-1.7-0.3c0,0-0.5,0.6-1.2,0.6c-0.7,0-1.9-0.8-1.9-0.8s-1.6,0.7-2.6,1.3c0,0,0.4,3,0.1,3.4
			l-0.6,10.6c0,0,4,0.5,6,0.4c3.5-0.2,4.2-0.5,4.2-0.5s-0.4-8.8-1.2-11.5C574,306.9,573.2,304.7,573.2,304.7z"/>
		<path class="st114" d="M566.6,305.3c0,0-6.8,2-7.4,1.8c-0.6-0.2-2.7-6-2.7-6l-1.7,0.7c0,0,1.8,8.4,3,8.8c1.2,0.4,8.2-1.6,8.2-1.6
			S567.3,307.2,566.6,305.3z"/>
		<path class="st135" d="M586.2,295.5c-0.3-0.8-1-1.3-1.7-1c-0.2,0.1-0.4,0.2-0.6,0.4c0.1,0.3,0.2,0.7,0.3,1
			c0.2,0.6,0.5,1.1,0.9,1.5c0.1,0,0.2,0,0.3-0.1C586.1,297.2,586.5,296.3,586.2,295.5z"/>
		<path class="st112" d="M567.6,297.3c0,0,0.8-1,2.1-0.9c1.2,0,1.9,0.2,2.3,1.2c0.4,1,1,3.4,1,3.4s-0.1,2.2-2.1,1.6
			c-2-0.6-4.2-1.9-3.9-2.8C567.3,298.9,567.6,297.3,567.6,297.3z"/>
		<path class="st114" d="M567.9,296.9c0,0,1.1,0.3,1.1,0.8c0,0.5-0.2,1.4,0.2,2.5c0,0-0.3,0.3-0.5,0c-0.2-0.2-0.1-1.1-0.7-1
			c-0.6,0.1-0.5,1.2,0.2,1.3c0,0,0.6,0.7,1.2,0.6c0.7,0,1.5-0.8,1.8-0.9c0.3-0.1,1.4-0.1,1.7,0c0,0,0.9,2.6-0.1,3s-3.6-0.3-5-1.7
			c0,0-1.5,0.1-1.4-2c0.1-1.6-0.9-1.9-0.1-3C566.9,295.8,567.9,296.9,567.9,296.9z"/>
		<path class="st114" d="M566.7,296.4c0,0,0.3-1.2,2-1.4c1.8-0.3,1.9,0.7,2.6,0.8c0.7,0.1,0.8-0.3,0.5-0.5c0,0,0.4-0.4,1.2,0.5
			s-0.2,2.4-1.6,2.6C569.8,298.7,568,298.3,566.7,296.4z"/>
		<path class="st104" d="M572.3,301.3c0,0-0.7,0.3-1.3,0.2c0,0,0.1,0.4,0.9,0.3C572.3,301.7,572.3,301.3,572.3,301.3z"/>
	</g>
</g>
<g>
	<path class="st118" d="M412.8,205.5c0,0,1.5,5.4,2.2,6.3c0.7,0.9,3.1,2.2,3.1,2.2l-0.6,1.1c0,0-4.4-2.2-5.1-4
		c-0.4-1.1-0.7-2-0.9-2.8c-0.1-0.7-0.6-2.3-0.4-3C411.4,204.9,412.5,204.6,412.8,205.5z"/>
	<path class="st136" d="M412.8,205.5c0,0,1.5,5.4,2.2,6.3c0.7,0.9,3.1,2.2,3.1,2.2l-0.6,1.1c0,0-4.4-2.2-5.1-4
		c-0.4-1.1-0.7-2-0.9-2.8c-0.1-0.7-0.6-2.3-0.4-3C411.4,204.9,412.5,204.6,412.8,205.5z"/>
	<path class="st114" d="M427.8,231.2l1.1-1c0,0,4.4-0.3,4.7,0.1c0.3,0.4-4.2,2.5-4.7,2.4C428.3,232.7,427.9,231.7,427.8,231.2z"/>
	<path class="st112" d="M419.7,216.4c0,0,4.2-1.1,4.5-0.4c0.3,0.7,4.7,14.2,4.7,14.2l-1.1,1c0,0-4.6-11.4-6-12.6
		C420.5,217.4,419.1,216.8,419.7,216.4z"/>
	<path class="st115" d="M419.7,216.4c0,0,4.2-1.1,4.5-0.4c0.3,0.7,4.7,14.2,4.7,14.2l-1.1,1c0,0-4.6-11.4-6-12.6
		C420.5,217.4,419.1,216.8,419.7,216.4z"/>
	<g>
		<path class="st112" d="M417.6,213.9c0.3-0.1,0.6-0.2,0.9-0.3c0.2-0.1,0.5-0.2,0.7-0.2c0.2,0,1.8,0.7,1.4,1
			c-0.1,0.1-0.5-0.1-0.6-0.1c-0.2-0.1-0.4-0.2-0.6-0.3c0.2,0,1,0.4,0.9,0.6c-0.2,0.4-1-0.1-1.2-0.2c0.2,0,0.7,0.2,0.7,0.4
			c0,0.3-0.6,0.1-0.8,0c-0.1-0.1-0.2-0.1-0.3-0.1c-0.1,0-0.3,0-0.4,0.1c-0.2,0-0.5,0-0.7,0c-0.1,0-0.4,0-0.5-0.1
			c-0.1-0.1,0-0.4,0.1-0.5C417.3,213.9,417.4,213.9,417.6,213.9z"/>
		<path class="st115" d="M417.6,213.9c0.3-0.1,0.6-0.2,0.9-0.3c0.2-0.1,0.5-0.2,0.7-0.2c0.2,0,1.8,0.7,1.4,1
			c-0.1,0.1-0.5-0.1-0.6-0.1c-0.2-0.1-0.4-0.2-0.6-0.3c0.2,0,1,0.4,0.9,0.6c-0.2,0.4-1-0.1-1.2-0.2c0.2,0,0.7,0.2,0.7,0.4
			c0,0.3-0.6,0.1-0.8,0c-0.1-0.1-0.2-0.1-0.3-0.1c-0.1,0-0.3,0-0.4,0.1c-0.2,0-0.5,0-0.7,0c-0.1,0-0.4,0-0.5-0.1
			c-0.1-0.1,0-0.4,0.1-0.5C417.3,213.9,417.4,213.9,417.6,213.9z"/>
	</g>
	<g>
		<polygon class="st114" points="424.8,206.7 425.8,207.1 422.4,215.2 421.4,214.6 		"/>
		<rect x="415.4" y="214.5" class="st114" width="6.4" height="1"/>
	</g>
	<path class="st114" d="M404.1,209.9c0.9-0.5,1-1,0.5-2.8c-0.5-1.8,0.8-3.7,2-4.1c0.9-0.4,1.6-0.5,2.2-1.5c0.5-0.9-0.5-2.9,1.2-4.4
		c1.2-1.1,3-0.2,3-0.2c0.4-0.2,0.5,2,0.6,3.7c-2.1,3.3-1.5,7.6-0.8,11.2c0,0.1,0,0.2,0.1,0.2c-0.2,2.8-0.3,5.2-0.3,5.2
		s-5.1,2.9-8.6,0.4C400.4,215.1,402.3,210.9,404.1,209.9z"/>
	<path class="st114" d="M419.2,230.6l1.3,0.8c0,0,1.6,4.1,1.3,4.5c-0.3,0.4-3.6-3.3-3.7-3.8C417.9,231.4,418.8,230.8,419.2,230.6z"
		/>
	<path class="st112" d="M417.5,216.1c0,0,8.4,0.6,9.2,1.3c0.8,0.8-6.3,13.8-6.3,13.8l-1.2-0.7c0,0,1.8-6.2,2.2-7.6
		c0.5-1.4,1.3-3.2,1.2-3.4c-0.2-0.2-8.6,1-8.6-1.3C414.1,215.8,417.5,216.1,417.5,216.1z"/>
	<path class="st112" d="M413.4,202c0,0-0.9,2.4-0.3,4.2l-2.9-0.7c0,0,1.2-4,1.7-4.7C412.3,200,413.4,202,413.4,202z"/>
	<path class="st115" d="M412.2,204.1c-1,0-1.5,0.7-1.5,1.5l-0.6-0.1c0,0,1.2-4,1.7-4.7c0.5-0.7,1.6,1.2,1.6,1.2s-0.4,1.1-0.5,2.3
		C412.7,204.2,412.4,204.1,412.2,204.1z"/>
	<path class="st112" d="M413.7,198.8c0,0,1.1,0.5,1.4,1c0.3,0.5,0,1.1,0.1,1.5c0,0.4,0.1,1,0.1,1.1c-0.1,0.1-0.5,0-0.6,0.1
		c-0.1,0.1-0.6,0.4-0.8,0.8c-0.2,0.4-0.4,0.4-0.8,0.2c-0.4-0.2-1.9-2.2-1.9-3.1C411.1,199.5,412.6,198.4,413.7,198.8z"/>
	<path class="st114" d="M412.7,197.5c0,0,0.5,1.1,0.6,1.5c0.1,0.4-0.3,1.7-0.6,1.8c-0.2,0.2,0-1.4-0.6-0.9c-0.6,0.5,0,1.4,0,1.6
		c0,0.2-0.3,0.8-0.9,0.8c-0.6,0.1-1.7-3-1-3.8C410.8,197.7,412,197.5,412.7,197.5z"/>
	<path class="st114" d="M412.6,196.9c0,0,1-0.8,2.1,0.1c1,0.8,1,2.1,1.9,2c0,0-0.6,1.5-1.8,1.1C413.5,199.8,412.2,197.8,412.6,196.9
		z"/>
	<path class="st107" d="M409.2,213.5l3.9-0.3c0,0,2,2.3,4,2.3c2,0,6.8,0,6.8,0s-0.4,3.1-2,5.4c0,0-6.5,0.2-9.7-0.1
		C409.1,220.6,406.1,217.1,409.2,213.5z"/>
	<path class="st113" d="M408.8,214c0.1-0.2,0.2-0.3,0.4-0.5l3.9-0.3c0,0,2,2.2,3.9,2.3C414.6,215.7,410.1,216.3,408.8,214z"/>
	<path class="st113" d="M422.1,216c-1-0.1-2-0.3-2.9-0.5h4.3C423.1,215.7,422.9,216,422.1,216z"/>
	<path class="st118" d="M410.5,204.1c0,0,1.8,0.7,2.4,0.8c0,0,1.3,2.8,1.7,3.5c0.5,0.8-1.2,3.6-1.3,4.9c0,0-1,1-4.2,0.4
		C409.1,213.6,408.3,205.8,410.5,204.1z"/>
	<path class="st136" d="M410,205.7c0.5-0.3,1.5,0,1.8,0.6c0.3,0.7,0,1.9,0,2.6c0,0.8,0.1,1.8,0.3,2.5c0.2,0.6,0.5,1.3,1,1.9
		c-0.4,0.2-1.6,0.7-4,0.3c0,0-0.5-4.8,0.3-7.7C409.6,205.9,409.8,205.8,410,205.7z"/>
	<path class="st112" d="M417,213.9c0.3-0.1,0.6-0.2,0.9-0.3c0.2-0.1,0.5-0.2,0.7-0.2c0.2,0,1.8,0.7,1.4,1c-0.1,0.1-0.5-0.1-0.6-0.1
		c-0.2-0.1-0.4-0.2-0.6-0.3c0.2,0,1,0.4,0.9,0.6c-0.2,0.4-1-0.1-1.2-0.2c0.2,0,0.7,0.2,0.7,0.4c0,0.3-0.6,0.1-0.8,0
		c-0.1-0.1-0.2-0.1-0.3-0.1c-0.1,0-0.3,0-0.4,0.1c-0.2,0-0.5,0-0.7,0c-0.1,0-0.4,0-0.5-0.1c-0.1-0.1,0-0.4,0.1-0.5
		C416.7,213.9,416.8,213.9,417,213.9z"/>
	<path class="st118" d="M417.2,213.8l-0.3,1.3c0,0-8.4-1-8.6-2.5c-0.2-1.5,0.3-8.4,2.4-7.7c2,0.7,0,5.8,0.3,6.2
		C411.3,211.5,417.2,213.8,417.2,213.8z"/>
</g>
<circle class="st104" cx="485.9" cy="141.1" r="14.8"/>
<g>
	<path class="st137" d="M267.4,337.4c0,0-6.4,0-8.6-1.5s-2.6-7.4,0.6-9.8c3.2-2.4,3.9-3.2,4.1-4.8c0.1-1.6,0.1-5.2,4.3-5.2
		c4.1,0,3.8,3.4,4.1,5.5c0.2,1.5,2.3,3.7,4.1,5.1C278.2,328.5,280.8,338.9,267.4,337.4z"/>
	<path class="st115" d="M269.2,322.4c-0.3,0.1-0.7,0.2-1.1,0.2c-0.7,0-1.4-0.2-1.9-0.5c-0.2,1.2,0.4,2.6-0.8,2.9
		c0,0,0.1,5.1,2.1,5.1c2.1,0,2.3-5.2,2.3-5.2S269,324.8,269.2,322.4z"/>
	<path class="st112" d="M270.6,321.1c-0.2-0.5-0.8-0.2-0.8-0.2c0.1-1.2,0.1-3.2,0.1-3.2l-2.2-0.2l-2.2,0.2c0,0,0,2,0.1,3.2
		c0,0-0.5-0.2-0.8,0.2c-0.4,0.8,0.5,1.3,0.5,1.3c0,0,0.6,2.6,2.3,2.8c1.7-0.2,2.3-2.8,2.3-2.8C270,322.4,270.9,321.9,270.6,321.1z"
		/>
	<g>
		<path class="st137" d="M270.2,317.7c0,0-1.1,2.9-4.2,2.7c0,0,0.1,0.5-0.1,1c0,0-0.4-1.2-0.9-1c-0.5,0.3-0.7,0.7-0.7,0.7
			s-0.5-3.5,1.8-4.2C268.3,316.1,270.2,317.7,270.2,317.7z"/>
		<path class="st137" d="M269.2,317.4c0,0.2,0,0.3,0,0.5c0,0.3,0,0.7,0,1c0.5,0.5,0.6,1.5,0.6,1.6c0,0.2,0,0.5,0.1,0.8
			c0,0,0.4-1.2,0.9-1c0.5,0.3,0.7,0.7,0.7,0.7S271.3,317.3,269.2,317.4z"/>
	</g>
	<path class="st118" d="M273.8,333.1c-0.6-1.8-0.3-6.7-0.3-6.7c-0.8-0.2-3.8-1.7-3.8-1.7l-2,4.7l-2.1-4.7c0,0-2.4,1.2-3.2,1.4
		c0,0-0.2,5.1-0.8,6.9c0,0,1.9,3.1,0,10.1h6h6C271.9,336.3,273.8,333.1,273.8,333.1z"/>
	<path class="st136" d="M273.8,333.1c-0.2-0.4-0.2-2-0.3-2.8c-0.3,0.8-0.6,2.5-0.9,3.2c-1,2.6-2.1,3.6-4.9,3.7
		c-2.3,0-4.5-3.7-4.7-4.4c-0.3-0.8-0.6-1.6-0.9-2.3c0,1.1-0.1,2-0.3,2.6c0,0,1.9,3.1,0,10.1h12.1
		C271.9,336.3,273.8,333.1,273.8,333.1z"/>
	<g>
		<path class="st138" d="M271.1,341.1c-7.7-1.1-16.6-2.4-16.5,0.5c0.1,2.8,3.5,4.9,6.4,6.2c1.6-0.7,3.3-0.9,5-1.2c3-0.6,6-0.2,9-0.3
			c3.1-1.4,4.7-3.8,4.7-3.8S277.1,342,271.1,341.1z"/>
		<path class="st104" d="M263.7,346.2c4-0.3,7.9-0.2,11.9-0.3c-0.6-0.5-0.9-0.9-0.2-1.1c3.2-2.4,5.4-4.5,3.7-4.8
			c-2-0.3-5.6-0.2-7.6,0.1c-1.5,0.2-2.4,0.4-3.8-0.1l-4.8-0.3c-4.9,1.2-5.8,3-5.8,3C257,343.4,260.5,344.6,263.7,346.2z"/>
		<path class="st106" d="M263.7,346.2c4-0.3,7.9-0.2,11.9-0.3c-0.6-0.5-0.9-0.9-0.2-1.1c3.2-2.4,5.4-4.5,3.7-4.8
			c-2-0.3-5.6-0.2-7.6,0.1c-1.5,0.2-2.4,0.4-3.8-0.1l-4.8-0.3c-4.9,1.2-5.8,3-5.8,3C257,343.4,260.5,344.6,263.7,346.2z"/>
		<path d="M262.6,344.9l1.6,2.1c0,0-1.7,1.2-2.2,1.4c-0.5,0.2-4.3,0.4-5.3-0.4c-0.9-0.7-1.2-1.6-0.7-2c0.6-0.6,2-0.7,2.7-0.8
			C260.3,344.9,262.6,344.9,262.6,344.9z"/>
		<path class="st104" d="M262,345l1,3.2c0,0,15-0.9,16.6-3.4c1.5-2.5,1.4-7-4.2-5.2C269.8,341.5,262,345,262,345z"/>
		<path class="st106" d="M278.9,344.2c-1,0-1.8-0.4-2.6-0.9c-1-0.6-2.1-0.9-3.2-1.1c-1-0.2-1.8-0.2-2.6-0.4
			c-4.4,1.6-8.4,3.3-8.4,3.3l0.8,2.5c0.4,0.1,0.8,0.2,1.2,0.3c0.5,0,0.9,0.1,1.4,0.2c0.1,0,0.2,0,0.3,0.1c4.4-0.4,12.8-1.4,13.9-3.2
			c0.2-0.3,0.3-0.6,0.5-0.9C279.7,344.1,279.3,344.2,278.9,344.2z"/>
		<path d="M274.8,345l-1.3,1.7c0,0,2.2,1.3,2.6,1.6c0.5,0.2,3.6,0.4,4.6-0.4c0.9-0.7,1.2-1.5,0.8-2c-0.6-0.6-2-0.8-2.6-0.9
			C277.4,344.8,274.8,345,274.8,345z"/>
		<path class="st104" d="M276.7,344.2l-1.2,3.9c0,0-19.3-1.2-20.9-3.8c-1.6-2.6,0.6-6.5,6.6-4.7
			C267.2,341.4,276.7,344.2,276.7,344.2z"/>
	</g>
	<path class="st139" d="M269.3,335.2h-3c-0.1,0-0.1,0.1-0.1,0.1v5.1c0,0.1,0.1,0.1,0.1,0.1h3c0.1,0,0.1-0.1,0.1-0.1v-5.1
		C269.4,335.3,269.3,335.2,269.3,335.2z"/>
	<path class="st112" d="M273,337.8l-2.5,0.4l-0.2,1.5c0,0,3-0.1,3.2,0C273.8,339.8,273.2,337.9,273,337.8z"/>
	<path class="st112" d="M270.4,339.9c0.6-0.3,0.8-1.2,0.6-1.8c-0.1-0.5-0.6-0.6-1.3-0.8c-0.5-0.1-0.9-0.2-1.1-0.1
		c-0.5,0.5,1.1,0.8,1.4,1c0,0-1.6-0.5-1.8-0.2c-0.4,0.5,1.2,0.8,1.6,0.9c-0.3-0.2-1-0.3-1.1-0.2c-0.3-0.1-0.3,0.2-0.3,0.2
		c0.1,0.3,1.4,0.5,1.4,0.5c-0.2,0-1-0.4-0.9,0c0.1,0.3,0.4,0.3,0.6,0.4C269.9,339.9,270.3,340,270.4,339.9z"/>
	<path class="st112" d="M262.8,337.8l2.5,0.4l0.2,1.5c0,0-3-0.1-3.2,0C262.1,339.8,262.6,337.9,262.8,337.8z"/>
	<path class="st112" d="M265.4,339.9c-0.6-0.3-0.8-1.2-0.6-1.8c0.1-0.5,0.6-0.6,1.3-0.8c0.5-0.1,0.9-0.2,1.1-0.1
		c0.5,0.5-1.1,0.8-1.4,1c0,0,1.6-0.5,1.8-0.2c0.4,0.5-1.2,0.8-1.6,0.9c0.3-0.2,1-0.3,1.1-0.2c0.3-0.1,0.3,0.2,0.3,0.2
		c-0.1,0.3-1.4,0.5-1.4,0.5c0.2,0,1-0.4,0.9,0c-0.1,0.3-0.4,0.3-0.6,0.4C265.9,339.9,265.5,340,265.4,339.9z"/>
	<path class="st118" d="M262.9,326.1c-0.6,0.2-2.2,0.8-3.7,4.8c-1.3,3.7-1.9,6.6-1.7,7.6c0.2,1.5,6.7,1.5,6.7,1.5l0.4-2.4
		c0,0-3.3-0.9-3.2-1.2c0.1-0.4,0.8-2.1,1.1-3.1C262.5,333.2,263.3,326,262.9,326.1z"/>
	<path class="st118" d="M272.9,326.3c0.5,0.1,2.2,0.9,3.7,4.6c1.4,3.6,1.9,6.6,1.7,7.6c-0.2,1.5-6.7,1.5-6.7,1.5l-0.4-2.4
		c0,0,3.3-0.9,3.2-1.2c-0.1-0.4-0.8-2.1-1.1-3.1C273.3,333.2,272.5,326.2,272.9,326.3z"/>
</g>
<path class="st104" d="M423.7,168.1c-4.6,0-9.2-0.1-13.8,0.1c-3.2,0.2-6.3,0-9.4-0.4c-1.1-0.1-2.1-0.4-3.1-0.8
	c-0.9-0.4-2.2-0.9-0.7-1.5c3.1-1.3,6.8,1.3,9.7-0.3c-0.3-0.6-1.4-1.6-0.9-2.4c0.3-0.6,2.2-0.8,2.7-0.9c2.1-0.2,4.7-0.2,6.6,0.7
	c2.3,1.1,4.6,0.9,7.1,0.9c1.1,0,5.9-0.6,6.4,1.1c0.3,1-0.9,0.6,0.1,1.5c0.7,0.7,2.1,0.5,3,0.5c0.6,0,2.1-0.2,2.5,0.5
	c0.6,0.9-0.3,1.4-0.9,1.5C431.4,169,425.1,168.1,423.7,168.1z"/>
<path class="st104" d="M426.2,181.6c2.3,0.1,4.6,0.4,6.9,0.2c1-0.1,2,0,3,0.1c2.2,0.4,4.2,0,6.2-0.2c1.3-0.1,2.8,0.1,4-0.6
	c2.3-1.4-1-2-2-1.9c-1.8,0.2-3.4,0.1-5-0.9c-0.8-0.5-1.7-0.5-2.6-0.6c-0.7-0.1-2-0.5-2.7-0.1c-0.3,0.2-0.4,0.6-0.8,0.8
	c-0.6,0.3-1.3,0.2-1.9,0.3c-1.1,0.1-2.1-0.3-3.2-0.5c-0.7-0.1-6.1-1-6.4,0c-0.2,0.7,1.9,0.7,1.8,1.4c-0.1,0.5-2.4,0.5-2.8,0.6
	c-0.6,0.1-3,0-3,1c1.7,0.6,3.3,0.7,5.1,0.7c0.1,0,0.2,0,0.3,0l0,0C424,181.7,425.1,181.6,426.2,181.6z"/>
<path class="st104" d="M513.5,115.3c2.3,0.1,4.5,0.4,6.8,0.2c1-0.1,1.9,0,2.9,0.1c2.1,0.4,4.1,0,6.1-0.2c1.2-0.1,2.8,0.1,3.9-0.6
	c2.3-1.4-1-2-2-1.9c-1.8,0.2-3.4,0.1-5-0.9c-0.8-0.5-1.7-0.5-2.6-0.6c-0.7-0.1-2-0.5-2.6-0.1c-0.3,0.2-0.4,0.6-0.8,0.8
	c-0.5,0.3-1.2,0.2-1.8,0.3c-1.1,0.1-2-0.3-3.1-0.5c-0.7-0.1-6-1-6.3,0c-0.2,0.7,1.9,0.7,1.7,1.4c-0.1,0.5-2.4,0.5-2.8,0.6
	c-0.6,0.1-2.9,0-2.9,1c1.7,0.6,3.3,0.7,5,0.7c0.1,0,0.2,0,0.2,0l0,0C511.4,115.3,512.4,115.2,513.5,115.3z"/>
<polygon class="st140" points="527.3,164.5 524.5,164.5 524.5,161.7 522.9,161.7 522.9,164.5 520.1,164.5 520.1,166 522.9,166 
	522.9,168.8 524.5,168.8 524.5,166 527.3,166 "/>
<polygon class="st140" points="450.6,200.5 447.8,200.5 447.8,197.7 446.3,197.7 446.3,200.5 443.5,200.5 443.5,202 446.3,202 
	446.3,204.8 447.8,204.8 447.8,202 450.6,202 "/>
<polygon class="st140" points="590.2,218.4 587.4,218.4 587.4,215.6 585.8,215.6 585.8,218.4 583,218.4 583,220 585.8,220 
	585.8,222.8 587.4,222.8 587.4,220 590.2,220 "/>
<polygon class="st140" points="584,112.6 581.2,112.6 581.2,109.8 579.7,109.8 579.7,112.6 576.9,112.6 576.9,114.1 579.7,114.1 
	579.7,116.9 581.2,116.9 581.2,114.1 584,114.1 "/>
<polygon class="st140" points="239.9,333.2 237.1,333.2 237.1,330.4 235.5,330.4 235.5,333.2 232.7,333.2 232.7,334.8 235.5,334.8 
	235.5,337.6 237.1,337.6 237.1,334.8 239.9,334.8 "/>
</svg>
